<svg width="322" height="223" viewBox="0 0 322 223" fill="none" xmlns="http://www.w3.org/2000/svg">
<g filter="url(#filter0_d)">
<path d="M23.6162 92.6285L24.6156 92.6624C24.6258 92.3611 24.4995 92.0712 24.2719 91.8735C24.0442 91.6758 23.7395 91.5913 23.4425 91.6437L23.6162 92.6285ZM11.704 94.729L10.7045 94.6968C10.6948 94.9979 10.8213 95.2873 11.0489 95.4846C11.2765 95.6819 11.581 95.7661 11.8776 95.7138L11.704 94.729ZM11.9646 86.6246L11.791 85.6398C11.325 85.7219 10.9803 86.1195 10.9651 86.5924L11.9646 86.6246ZM45.9365 80.6344L46.936 80.6665C46.9457 80.3655 46.8192 80.0761 46.5916 79.8788C46.3639 79.6815 46.0595 79.5973 45.7629 79.6496L45.9365 80.6344ZM45.6759 88.7388L45.8495 89.7236C46.3155 89.6414 46.6602 89.2439 46.6754 88.7709L45.6759 88.7388ZM33.7637 90.8392L33.59 89.8544C33.1247 89.9365 32.7803 90.3331 32.7642 90.8053L33.7637 90.8392ZM32.6096 124.836L32.7833 125.821C33.2486 125.739 33.593 125.342 33.609 124.87L32.6096 124.836ZM22.4622 126.625L21.4627 126.591C21.4525 126.893 21.5788 127.183 21.8065 127.38C22.0341 127.578 22.3389 127.663 22.6358 127.61L22.4622 126.625ZM23.4425 91.6437L11.5303 93.7442L11.8776 95.7138L23.7898 93.6133L23.4425 91.6437ZM12.7034 94.7611L12.9641 86.6567L10.9651 86.5924L10.7045 94.6968L12.7034 94.7611ZM12.1383 87.6094L46.1102 81.6192L45.7629 79.6496L11.791 85.6398L12.1383 87.6094ZM44.9371 80.6023L44.6764 88.7066L46.6754 88.7709L46.936 80.6665L44.9371 80.6023ZM45.5022 87.754L33.59 89.8544L33.9373 91.824L45.8495 89.7236L45.5022 87.754ZM32.7642 90.8053L31.6102 124.802L33.609 124.87L34.7631 90.8732L32.7642 90.8053ZM32.436 123.851L22.2885 125.641L22.6358 127.61L32.7833 125.821L32.436 123.851ZM23.4616 126.659L24.6156 92.6624L22.6168 92.5946L21.4627 126.591L23.4616 126.659ZM53.7075 113.447L53.5339 112.463C53.0686 112.545 52.7243 112.941 52.7081 113.413L53.7075 113.447ZM61.8381 112.014L62.8375 112.048C62.8478 111.747 62.7216 111.457 62.4939 111.259C62.2662 111.061 61.9615 110.977 61.6645 111.029L61.8381 112.014ZM61.5738 119.729L61.7474 120.714C62.2127 120.632 62.557 120.235 62.5732 119.763L61.5738 119.729ZM53.4432 121.163L52.4438 121.128C52.4335 121.43 52.5597 121.72 52.7874 121.918C53.0151 122.115 53.3199 122.2 53.6169 122.147L53.4432 121.163ZM53.8812 114.432L62.0117 112.999L61.6645 111.029L53.5339 112.463L53.8812 114.432ZM60.8387 111.98L60.5744 119.695L62.5732 119.763L62.8375 112.048L60.8387 111.98ZM61.4001 118.744L53.2696 120.178L53.6169 122.147L61.7474 120.714L61.4001 118.744ZM54.4426 121.197L54.7069 113.482L52.7081 113.413L52.4438 121.128L54.4426 121.197ZM74.4851 75.6005L74.3115 74.6157C73.846 74.6978 73.5016 75.0945 73.4857 75.5669L74.4851 75.6005ZM84.6326 73.8112L85.632 73.8454C85.6423 73.544 85.516 73.2541 85.2884 73.0563C85.0607 72.8585 84.7559 72.7741 84.4589 72.8264L84.6326 73.8112ZM84.063 90.4834L83.0636 90.4493C83.0533 90.7507 83.1796 91.0406 83.4073 91.2384C83.6349 91.4362 83.9397 91.5206 84.2367 91.4682L84.063 90.4834ZM99.946 87.6828L100.12 88.6676C100.585 88.5856 100.929 88.1892 100.945 87.717L99.946 87.6828ZM100.516 71.0106L100.342 70.0258C99.8767 70.1079 99.5323 70.5043 99.5161 70.9765L100.516 71.0106ZM110.663 69.2214L111.662 69.255C111.673 68.9537 111.546 68.6639 111.319 68.4662C111.091 68.2686 110.786 68.1842 110.489 68.2366L110.663 69.2214ZM109.248 111.323L109.422 112.307C109.887 112.225 110.232 111.829 110.248 111.356L109.248 111.323ZM99.1009 113.112L98.1015 113.078C98.0912 113.379 98.2174 113.669 98.4451 113.867C98.6728 114.065 98.9775 114.149 99.2745 114.097L99.1009 113.112ZM99.6704 96.4397L100.67 96.4739C100.68 96.1725 100.554 95.8825 100.326 95.6848C100.099 95.487 99.7938 95.4026 99.4968 95.4549L99.6704 96.4397ZM83.7875 99.2403L83.6138 98.2555C83.1485 98.3376 82.8042 98.734 82.788 99.2062L83.7875 99.2403ZM83.2179 115.913L83.3916 116.897C83.8568 116.815 84.2012 116.419 84.2173 115.947L83.2179 115.913ZM73.0704 117.702L72.071 117.668C72.0609 117.97 72.1872 118.259 72.4149 118.457C72.6425 118.655 72.9472 118.739 73.2441 118.687L73.0704 117.702ZM74.6588 76.5853L84.8062 74.7961L84.4589 72.8264L74.3115 74.6157L74.6588 76.5853ZM83.6332 73.7771L83.0636 90.4493L85.0624 90.5176L85.632 73.8454L83.6332 73.7771ZM84.2367 91.4682L100.12 88.6676L99.7724 86.698L83.8894 89.4986L84.2367 91.4682ZM100.945 87.717L101.515 71.0448L99.5161 70.9765L98.9466 87.6487L100.945 87.717ZM100.689 71.9955L110.837 70.2062L110.489 68.2366L100.342 70.0258L100.689 71.9955ZM109.664 69.1878L108.249 111.289L110.248 111.356L111.662 69.255L109.664 69.1878ZM109.075 110.338L98.9272 112.127L99.2745 114.097L109.422 112.307L109.075 110.338ZM100.1 113.146L100.67 96.4739L98.671 96.4056L98.1015 113.078L100.1 113.146ZM99.4968 95.4549L83.6138 98.2555L83.9611 100.225L99.8441 97.4245L99.4968 95.4549ZM82.788 99.2062L82.2185 115.878L84.2173 115.947L84.7869 99.2745L82.788 99.2062ZM83.0443 114.928L72.8968 116.717L73.2441 118.687L83.3916 116.897L83.0443 114.928ZM74.0699 117.735L75.4846 75.6341L73.4857 75.5669L72.071 117.668L74.0699 117.735ZM120.97 101.587L120.796 100.603C120.331 100.685 119.987 101.081 119.97 101.553L120.97 101.587ZM129.1 100.154L130.1 100.188C130.11 99.8865 129.984 99.5965 129.756 99.3988C129.529 99.201 129.224 99.1165 128.927 99.1689L129.1 100.154ZM128.836 107.869L129.01 108.854C129.475 108.772 129.819 108.375 129.836 107.903L128.836 107.869ZM120.706 109.302L119.706 109.268C119.696 109.57 119.822 109.86 120.05 110.057C120.277 110.255 120.582 110.34 120.879 110.287L120.706 109.302ZM121.144 102.572L129.274 101.138L128.927 99.1689L120.796 100.603L121.144 102.572ZM128.101 100.119L127.837 107.835L129.836 107.903L130.1 100.188L128.101 100.119ZM128.663 106.884L120.532 108.318L120.879 110.287L129.01 108.854L128.663 106.884ZM121.705 109.337L121.969 101.622L119.97 101.553L119.706 109.268L121.705 109.337ZM141.747 63.7403L141.574 62.7555C141.108 62.8376 140.764 63.2344 140.748 63.7068L141.747 63.7403ZM171.686 58.4614L172.685 58.4936C172.695 58.1925 172.568 57.9031 172.341 57.7058C172.113 57.5085 171.809 57.4243 171.512 57.4766L171.686 58.4614ZM171.425 66.5658L171.599 67.5506C172.065 67.4685 172.409 67.0709 172.424 66.598L171.425 66.5658ZM151.634 70.0555L151.461 69.0707C150.996 69.1525 150.652 69.5474 150.635 70.0184L151.634 70.0555ZM151.307 78.8865L150.308 78.8494C150.296 79.1513 150.422 79.4421 150.65 79.6405C150.878 79.8389 151.183 79.9238 151.48 79.8713L151.307 78.8865ZM168.765 75.8081L169.765 75.837C169.774 75.5365 169.647 75.248 169.419 75.0514C169.192 74.8548 168.888 74.771 168.592 74.8233L168.765 75.8081ZM168.527 84.0385L168.701 85.0233C169.168 84.9409 169.513 84.5416 169.527 84.0675L168.527 84.0385ZM151.068 87.1169L150.895 86.1321C150.431 86.214 150.087 86.6089 150.069 87.0799L151.068 87.1169ZM150.741 95.948L149.742 95.9109C149.73 96.2128 149.856 96.5035 150.084 96.702C150.312 96.9004 150.617 96.9852 150.915 96.9328L150.741 95.948ZM170.532 92.4583L171.531 92.4905C171.541 92.1894 171.414 91.9 171.187 91.7027C170.959 91.5054 170.655 91.4212 170.358 91.4735L170.532 92.4583ZM170.271 100.563L170.445 101.548C170.911 101.465 171.255 101.068 171.27 100.595L170.271 100.563ZM140.333 105.842L139.333 105.808C139.323 106.109 139.45 106.399 139.677 106.597C139.905 106.794 140.21 106.879 140.506 106.826L140.333 105.842ZM141.921 64.7252L171.859 59.4462L171.512 57.4766L141.574 62.7555L141.921 64.7252ZM170.686 58.4293L170.426 66.5337L172.424 66.598L172.685 58.4936L170.686 58.4293ZM171.251 65.581L151.461 69.0707L151.808 71.0403L171.599 67.5506L171.251 65.581ZM150.635 70.0184L150.308 78.8494L152.306 78.9236L152.634 70.0925L150.635 70.0184ZM151.48 79.8713L168.939 76.7929L168.592 74.8233L151.133 77.9017L151.48 79.8713ZM167.766 75.7791L167.527 84.0095L169.527 84.0675L169.765 75.837L167.766 75.7791ZM168.353 83.0537L150.895 86.1321L151.242 88.1017L168.701 85.0233L168.353 83.0537ZM150.069 87.0799L149.742 95.9109L151.74 95.985L152.068 87.154L150.069 87.0799ZM150.915 96.9328L170.705 93.4431L170.358 91.4735L150.567 94.9632L150.915 96.9328ZM169.532 92.4262L169.271 100.531L171.27 100.595L171.531 92.4905L169.532 92.4262ZM170.097 99.5779L140.159 104.857L140.506 106.826L170.445 101.548L170.097 99.5779ZM141.332 105.875L142.747 63.7739L140.748 63.7068L139.333 105.808L141.332 105.875ZM180.415 91.1055L180.242 90.1207C179.776 90.2027 179.432 90.5991 179.416 91.0712L180.415 91.1055ZM188.546 89.6718L189.545 89.7061C189.556 89.4047 189.429 89.1147 189.202 88.9169C188.974 88.7191 188.669 88.6347 188.372 88.687L188.546 89.6718ZM188.282 97.387L188.455 98.3718C188.92 98.2897 189.265 97.8933 189.281 97.4212L188.282 97.387ZM180.151 98.8206L179.152 98.7864C179.141 99.0878 179.268 99.3777 179.495 99.5755C179.723 99.7733 180.028 99.8578 180.325 99.8054L180.151 98.8206ZM180.589 92.0903L188.72 90.6567L188.372 88.687L180.242 90.1207L180.589 92.0903ZM187.547 89.6376L187.282 97.3527L189.281 97.4212L189.545 89.7061L187.547 89.6376ZM188.108 96.4021L179.977 97.8358L180.325 99.8054L188.455 98.3718L188.108 96.4021ZM181.15 98.8548L181.415 91.1397L179.416 91.0712L179.152 98.7864L181.15 98.8548ZM201.193 53.2585L201.019 52.2737C200.554 52.3558 200.209 52.7525 200.193 53.2249L201.193 53.2585ZM230.245 51.0604L229.706 51.9032L229.715 51.9085L230.245 51.0604ZM234.974 61.6642L233.974 61.6348L233.974 61.6384L234.974 61.6642ZM232.648 69.4829L231.794 68.9626L231.793 68.9638L232.648 69.4829ZM226.842 75.2508L226.324 74.3951C226.042 74.5657 225.862 74.8644 225.843 75.1935C225.824 75.5227 225.969 75.84 226.23 76.0417L226.842 75.2508ZM229.232 78.8585L228.301 79.2219C228.304 79.2307 228.308 79.2396 228.311 79.2483L229.232 78.8585ZM233.687 89.3807L233.861 90.3655C234.161 90.3126 234.42 90.1259 234.566 89.8583C234.711 89.5907 234.727 89.2714 234.608 88.9909L233.687 89.3807ZM223.098 91.2478L222.178 91.6393C222.36 92.0674 222.814 92.3134 223.272 92.2326L223.098 91.2478ZM218.881 81.3336L217.955 81.7125L217.961 81.725L218.881 81.3336ZM217.465 79.5686L216.976 80.4408C217.004 80.4567 217.033 80.4713 217.063 80.4844L217.465 79.5686ZM210.369 80.235L210.195 79.2502C209.729 79.3323 209.385 79.7292 209.369 80.2018L210.369 80.235ZM209.926 93.5705L210.099 94.5553C210.565 94.4732 210.909 94.0763 210.925 93.6037L209.926 93.5705ZM199.778 95.3598L198.779 95.3262C198.769 95.6275 198.895 95.9173 199.123 96.1149C199.35 96.3126 199.655 96.3969 199.952 96.3446L199.778 95.3598ZM222.842 68.4175L222.102 67.7451L222.102 67.7451L222.842 68.4175ZM224.637 63.4868L225.637 63.5219C225.637 63.5131 225.637 63.5043 225.637 63.4954L224.637 63.4868ZM222.895 58.4L222.403 59.2706C222.422 59.281 222.441 59.2908 222.46 59.3001L222.895 58.4ZM211.08 59.5736L210.906 58.5888C210.441 58.6707 210.097 59.0663 210.08 59.5378L211.08 59.5736ZM210.629 72.1306L209.63 72.0948C209.619 72.3964 209.745 72.6869 209.973 72.885C210.201 73.0832 210.506 73.1678 210.803 73.1154L210.629 72.1306ZM201.367 54.2433L221.661 50.6648L221.314 48.6952L201.019 52.2737L201.367 54.2433ZM221.661 50.6648C224.92 50.0901 227.572 50.5398 229.706 51.9031L230.783 50.2176C228.133 48.5253 224.946 48.0547 221.314 48.6952L221.661 50.6648ZM229.715 51.9085C231.873 53.2563 233.238 55.3668 233.767 58.3677L235.737 58.0204C235.125 54.5504 233.485 51.9052 230.774 50.2122L229.715 51.9085ZM233.767 58.3677C233.938 59.3402 234.01 60.4277 233.974 61.6348L235.973 61.6937C236.012 60.3748 235.936 59.1488 235.737 58.0204L233.767 58.3677ZM233.974 61.6384C233.907 64.2456 233.183 66.6818 231.794 68.9626L233.502 70.0031C235.07 67.43 235.897 64.6539 235.973 61.6901L233.974 61.6384ZM231.793 68.9638C230.435 71.2007 228.616 73.009 226.324 74.3951L227.359 76.1065C229.921 74.557 231.974 72.52 233.503 70.0019L231.793 68.9638ZM226.23 76.0417C226.654 76.3698 227.007 76.7412 227.295 77.156L228.938 76.0153C228.529 75.4265 228.033 74.908 227.453 74.4599L226.23 76.0417ZM227.295 77.156C227.577 77.562 227.915 78.2343 228.301 79.2219L230.164 78.495C229.759 77.4558 229.353 76.6129 228.938 76.0153L227.295 77.156ZM228.311 79.2483L232.766 89.7706L234.608 88.9909L230.153 78.4686L228.311 79.2483ZM233.513 88.3959L222.925 90.263L223.272 92.2326L233.861 90.3655L233.513 88.3959ZM224.019 90.8563L219.801 80.9421L217.961 81.725L222.178 91.6393L224.019 90.8563ZM219.806 80.9547C219.386 79.9293 218.78 79.0536 217.867 78.6529L217.063 80.4844C217.277 80.5782 217.614 80.8791 217.955 81.7125L219.806 80.9547ZM217.954 78.6965C217.114 78.2253 216.013 78.2244 214.859 78.4278L215.206 80.3974C216.238 80.2155 216.758 80.3186 216.976 80.4408L217.954 78.6965ZM214.859 78.4278L210.195 79.2502L210.542 81.2198L215.206 80.3974L214.859 78.4278ZM209.369 80.2018L208.926 93.5373L210.925 93.6037L211.368 80.2682L209.369 80.2018ZM209.752 92.5857L199.605 94.375L199.952 96.3446L210.099 94.5553L209.752 92.5857ZM200.778 95.3934L202.192 53.2921L200.193 53.2249L198.779 95.3262L200.778 95.3934ZM218.303 71.7929C220.488 71.4076 222.278 70.5262 223.582 69.0899L222.102 67.7451C221.157 68.785 219.805 69.4973 217.956 69.8233L218.303 71.7929ZM223.582 69.0899C224.9 67.6396 225.558 65.752 225.637 63.5219L223.638 63.4517C223.572 65.3196 223.034 66.7191 222.102 67.7451L223.582 69.0899ZM225.637 63.4954C225.647 62.3092 225.602 61.3548 225.482 60.6735L223.512 61.0208C223.599 61.516 223.647 62.3214 223.637 63.4783L225.637 63.4954ZM225.482 60.6735C225.23 59.2452 224.558 58.0941 223.331 57.5L222.46 59.3001C222.938 59.5317 223.334 60.012 223.512 61.0208L225.482 60.6735ZM223.387 57.5294C222.252 56.8875 220.661 56.8687 218.848 57.1885L219.195 59.1581C220.911 58.8556 221.903 58.9879 222.403 59.2706L223.387 57.5294ZM218.848 57.1885L210.906 58.5888L211.253 60.5584L219.195 59.1581L218.848 57.1885ZM210.08 59.5378L209.63 72.0948L211.629 72.1664L212.079 59.6095L210.08 59.5378ZM210.803 73.1154L218.303 71.7929L217.956 69.8233L210.456 71.1458L210.803 73.1154ZM244.539 79.7988L244.365 78.814C243.9 78.896 243.555 79.2925 243.539 79.7646L244.539 79.7988ZM252.669 78.3652L253.669 78.3994C253.679 78.098 253.553 77.808 253.325 77.6103C253.097 77.4125 252.793 77.328 252.496 77.3804L252.669 78.3652ZM252.405 86.0803L252.579 87.0651C253.044 86.9831 253.388 86.5867 253.404 86.1145L252.405 86.0803ZM244.274 87.5139L243.275 87.4797C243.265 87.7811 243.391 88.0711 243.619 88.2688C243.846 88.4666 244.151 88.5511 244.448 88.4987L244.274 87.5139ZM244.712 80.7836L252.843 79.35L252.496 77.3804L244.365 78.814L244.712 80.7836ZM251.67 78.3309L251.406 86.046L253.404 86.1145L253.669 78.3994L251.67 78.3309ZM252.231 85.0955L244.101 86.5291L244.448 88.4987L252.579 87.0651L252.231 85.0955ZM245.274 87.5482L245.538 79.8331L243.539 79.7646L243.275 87.4797L245.274 87.5482ZM265.316 41.9518L265.143 40.967C264.677 41.0491 264.333 41.4459 264.317 41.9183L265.316 41.9518ZM295.254 36.6729L296.254 36.7051C296.264 36.404 296.137 36.1146 295.909 35.9173C295.682 35.72 295.377 35.6358 295.081 35.6881L295.254 36.6729ZM294.994 44.7773L295.167 45.7621C295.633 45.68 295.978 45.2824 295.993 44.8095L294.994 44.7773ZM275.203 48.267L275.029 47.2822C274.565 47.364 274.221 47.7589 274.204 48.2299L275.203 48.267ZM274.876 57.098L273.876 57.0609C273.865 57.3628 273.991 57.6536 274.219 57.852C274.446 58.0504 274.752 58.1353 275.049 58.0828L274.876 57.098ZM292.334 54.0196L293.334 54.0485C293.343 53.748 293.216 53.4595 292.988 53.2629C292.761 53.0663 292.457 52.9825 292.161 53.0347L292.334 54.0196ZM292.096 62.25L292.269 63.2348C292.737 63.1524 293.082 62.7531 293.095 62.279L292.096 62.25ZM274.637 65.3284L274.463 64.3436C273.999 64.4255 273.655 64.8203 273.638 65.2914L274.637 65.3284ZM274.31 74.1595L273.31 74.1224C273.299 74.4243 273.425 74.715 273.653 74.9135C273.881 75.1119 274.186 75.1967 274.483 75.1443L274.31 74.1595ZM294.1 70.6698L295.1 70.702C295.11 70.4009 294.983 70.1115 294.755 69.9142C294.528 69.7169 294.223 69.6327 293.927 69.685L294.1 70.6698ZM293.84 78.7742L294.013 79.759C294.479 79.6768 294.824 79.2793 294.839 78.8064L293.84 78.7742ZM263.902 84.0531L262.902 84.0195C262.892 84.3208 263.018 84.6106 263.246 84.8083C263.474 85.0059 263.778 85.0903 264.075 85.0379L263.902 84.0531ZM265.49 42.9367L295.428 37.6577L295.081 35.6881L265.143 40.967L265.49 42.9367ZM294.255 36.6408L293.994 44.7452L295.993 44.8095L296.254 36.7051L294.255 36.6408ZM294.82 43.7925L275.029 47.2822L275.377 49.2518L295.167 45.7621L294.82 43.7925ZM274.204 48.2299L273.876 57.0609L275.875 57.135L276.202 48.304L274.204 48.2299ZM275.049 58.0828L292.508 55.0044L292.161 53.0347L274.702 56.1132L275.049 58.0828ZM291.335 53.9906L291.096 62.221L293.095 62.279L293.334 54.0485L291.335 53.9906ZM291.922 61.2652L274.463 64.3436L274.811 66.3132L292.269 63.2348L291.922 61.2652ZM273.638 65.2914L273.31 74.1224L275.309 74.1965L275.636 65.3655L273.638 65.2914ZM274.483 75.1443L294.274 71.6546L293.927 69.685L274.136 73.1747L274.483 75.1443ZM293.101 70.6377L292.84 78.7421L294.839 78.8064L295.1 70.702L293.101 70.6377ZM293.666 77.7894L263.728 83.0683L264.075 85.0379L294.013 79.759L293.666 77.7894ZM264.901 84.0867L266.316 41.9854L264.317 41.9183L262.902 84.0195L264.901 84.0867ZM303.984 69.317L303.81 68.3322C303.345 68.4142 303.001 68.8106 302.985 69.2827L303.984 69.317ZM312.115 67.8833L313.114 67.9176C313.124 67.6162 312.998 67.3262 312.77 67.1284C312.543 66.9306 312.238 66.8462 311.941 66.8985L312.115 67.8833ZM311.85 75.5984L312.024 76.5833C312.489 76.5012 312.834 76.1048 312.85 75.6327L311.85 75.5984ZM303.72 77.0321L302.72 76.9978C302.71 77.2993 302.836 77.5892 303.064 77.787C303.292 77.9848 303.596 78.0693 303.893 78.0169L303.72 77.0321ZM304.158 70.3018L312.288 68.8681L311.941 66.8985L303.81 68.3322L304.158 70.3018ZM311.115 67.8491L310.851 75.5642L312.85 75.6327L313.114 67.9176L311.115 67.8491ZM311.677 74.6136L303.546 76.0473L303.893 78.0169L312.024 76.5833L311.677 74.6136ZM304.719 77.0663L304.984 69.3512L302.985 69.2827L302.72 76.9978L304.719 77.0663Z" fill="#EF41F2"/>
</g>
<g filter="url(#filter1_d)">
<path d="M23.6162 92.6285L24.6156 92.6624C24.6258 92.3611 24.4995 92.0712 24.2719 91.8735C24.0442 91.6758 23.7395 91.5913 23.4425 91.6437L23.6162 92.6285ZM11.704 94.729L10.7045 94.6968C10.6948 94.9979 10.8213 95.2873 11.0489 95.4846C11.2765 95.6819 11.581 95.7661 11.8776 95.7138L11.704 94.729ZM11.9646 86.6246L11.791 85.6398C11.325 85.7219 10.9803 86.1195 10.9651 86.5924L11.9646 86.6246ZM45.9365 80.6344L46.936 80.6665C46.9457 80.3655 46.8192 80.0761 46.5916 79.8788C46.3639 79.6815 46.0595 79.5973 45.7629 79.6496L45.9365 80.6344ZM45.6759 88.7388L45.8495 89.7236C46.3155 89.6414 46.6602 89.2439 46.6754 88.7709L45.6759 88.7388ZM33.7637 90.8392L33.59 89.8544C33.1247 89.9365 32.7803 90.3331 32.7642 90.8053L33.7637 90.8392ZM32.6096 124.836L32.7833 125.821C33.2486 125.739 33.593 125.342 33.609 124.87L32.6096 124.836ZM22.4622 126.625L21.4627 126.591C21.4525 126.893 21.5788 127.183 21.8065 127.38C22.0341 127.578 22.3389 127.663 22.6358 127.61L22.4622 126.625ZM23.4425 91.6437L11.5303 93.7442L11.8776 95.7138L23.7898 93.6133L23.4425 91.6437ZM12.7034 94.7611L12.9641 86.6567L10.9651 86.5924L10.7045 94.6968L12.7034 94.7611ZM12.1383 87.6094L46.1102 81.6192L45.7629 79.6496L11.791 85.6398L12.1383 87.6094ZM44.9371 80.6023L44.6764 88.7066L46.6754 88.7709L46.936 80.6665L44.9371 80.6023ZM45.5022 87.754L33.59 89.8544L33.9373 91.824L45.8495 89.7236L45.5022 87.754ZM32.7642 90.8053L31.6102 124.802L33.609 124.87L34.7631 90.8732L32.7642 90.8053ZM32.436 123.851L22.2885 125.641L22.6358 127.61L32.7833 125.821L32.436 123.851ZM23.4616 126.659L24.6156 92.6624L22.6168 92.5946L21.4627 126.591L23.4616 126.659ZM53.7075 113.447L53.5339 112.463C53.0686 112.545 52.7243 112.941 52.7081 113.413L53.7075 113.447ZM61.8381 112.014L62.8375 112.048C62.8478 111.747 62.7216 111.457 62.4939 111.259C62.2662 111.061 61.9615 110.977 61.6645 111.029L61.8381 112.014ZM61.5738 119.729L61.7474 120.714C62.2127 120.632 62.557 120.235 62.5732 119.763L61.5738 119.729ZM53.4432 121.163L52.4438 121.128C52.4335 121.43 52.5597 121.72 52.7874 121.918C53.0151 122.115 53.3199 122.2 53.6169 122.147L53.4432 121.163ZM53.8812 114.432L62.0117 112.999L61.6645 111.029L53.5339 112.463L53.8812 114.432ZM60.8387 111.98L60.5744 119.695L62.5732 119.763L62.8375 112.048L60.8387 111.98ZM61.4001 118.744L53.2696 120.178L53.6169 122.147L61.7474 120.714L61.4001 118.744ZM54.4426 121.197L54.7069 113.482L52.7081 113.413L52.4438 121.128L54.4426 121.197ZM74.4851 75.6005L74.3115 74.6157C73.846 74.6978 73.5016 75.0945 73.4857 75.5669L74.4851 75.6005ZM84.6326 73.8112L85.632 73.8454C85.6423 73.544 85.516 73.2541 85.2884 73.0563C85.0607 72.8585 84.7559 72.7741 84.4589 72.8264L84.6326 73.8112ZM84.063 90.4834L83.0636 90.4493C83.0533 90.7507 83.1796 91.0406 83.4073 91.2384C83.6349 91.4362 83.9397 91.5206 84.2367 91.4682L84.063 90.4834ZM99.946 87.6828L100.12 88.6676C100.585 88.5856 100.929 88.1892 100.945 87.717L99.946 87.6828ZM100.516 71.0106L100.342 70.0258C99.8767 70.1079 99.5323 70.5043 99.5161 70.9765L100.516 71.0106ZM110.663 69.2214L111.662 69.255C111.673 68.9537 111.546 68.6639 111.319 68.4662C111.091 68.2686 110.786 68.1842 110.489 68.2366L110.663 69.2214ZM109.248 111.323L109.422 112.307C109.887 112.225 110.232 111.829 110.248 111.356L109.248 111.323ZM99.1009 113.112L98.1015 113.078C98.0912 113.379 98.2174 113.669 98.4451 113.867C98.6728 114.065 98.9775 114.149 99.2745 114.097L99.1009 113.112ZM99.6704 96.4397L100.67 96.4739C100.68 96.1725 100.554 95.8825 100.326 95.6848C100.099 95.487 99.7938 95.4026 99.4968 95.4549L99.6704 96.4397ZM83.7875 99.2403L83.6138 98.2555C83.1485 98.3376 82.8042 98.734 82.788 99.2062L83.7875 99.2403ZM83.2179 115.913L83.3916 116.897C83.8568 116.815 84.2012 116.419 84.2173 115.947L83.2179 115.913ZM73.0704 117.702L72.071 117.668C72.0609 117.97 72.1872 118.259 72.4149 118.457C72.6425 118.655 72.9472 118.739 73.2441 118.687L73.0704 117.702ZM74.6588 76.5853L84.8062 74.7961L84.4589 72.8264L74.3115 74.6157L74.6588 76.5853ZM83.6332 73.7771L83.0636 90.4493L85.0624 90.5176L85.632 73.8454L83.6332 73.7771ZM84.2367 91.4682L100.12 88.6676L99.7724 86.698L83.8894 89.4986L84.2367 91.4682ZM100.945 87.717L101.515 71.0448L99.5161 70.9765L98.9466 87.6487L100.945 87.717ZM100.689 71.9955L110.837 70.2062L110.489 68.2366L100.342 70.0258L100.689 71.9955ZM109.664 69.1878L108.249 111.289L110.248 111.356L111.662 69.255L109.664 69.1878ZM109.075 110.338L98.9272 112.127L99.2745 114.097L109.422 112.307L109.075 110.338ZM100.1 113.146L100.67 96.4739L98.671 96.4056L98.1015 113.078L100.1 113.146ZM99.4968 95.4549L83.6138 98.2555L83.9611 100.225L99.8441 97.4245L99.4968 95.4549ZM82.788 99.2062L82.2185 115.878L84.2173 115.947L84.7869 99.2745L82.788 99.2062ZM83.0443 114.928L72.8968 116.717L73.2441 118.687L83.3916 116.897L83.0443 114.928ZM74.0699 117.735L75.4846 75.6341L73.4857 75.5669L72.071 117.668L74.0699 117.735ZM120.97 101.587L120.796 100.603C120.331 100.685 119.987 101.081 119.97 101.553L120.97 101.587ZM129.1 100.154L130.1 100.188C130.11 99.8865 129.984 99.5965 129.756 99.3988C129.529 99.201 129.224 99.1165 128.927 99.1689L129.1 100.154ZM128.836 107.869L129.01 108.854C129.475 108.772 129.819 108.375 129.836 107.903L128.836 107.869ZM120.706 109.302L119.706 109.268C119.696 109.57 119.822 109.86 120.05 110.057C120.277 110.255 120.582 110.34 120.879 110.287L120.706 109.302ZM121.144 102.572L129.274 101.138L128.927 99.1689L120.796 100.603L121.144 102.572ZM128.101 100.119L127.837 107.835L129.836 107.903L130.1 100.188L128.101 100.119ZM128.663 106.884L120.532 108.318L120.879 110.287L129.01 108.854L128.663 106.884ZM121.705 109.337L121.969 101.622L119.97 101.553L119.706 109.268L121.705 109.337ZM141.747 63.7403L141.574 62.7555C141.108 62.8376 140.764 63.2344 140.748 63.7068L141.747 63.7403ZM171.686 58.4614L172.685 58.4936C172.695 58.1925 172.568 57.9031 172.341 57.7058C172.113 57.5085 171.809 57.4243 171.512 57.4766L171.686 58.4614ZM171.425 66.5658L171.599 67.5506C172.065 67.4685 172.409 67.0709 172.424 66.598L171.425 66.5658ZM151.634 70.0555L151.461 69.0707C150.996 69.1525 150.652 69.5474 150.635 70.0184L151.634 70.0555ZM151.307 78.8865L150.308 78.8494C150.296 79.1513 150.422 79.4421 150.65 79.6405C150.878 79.8389 151.183 79.9238 151.48 79.8713L151.307 78.8865ZM168.765 75.8081L169.765 75.837C169.774 75.5365 169.647 75.248 169.419 75.0514C169.192 74.8548 168.888 74.771 168.592 74.8233L168.765 75.8081ZM168.527 84.0385L168.701 85.0233C169.168 84.9409 169.513 84.5416 169.527 84.0675L168.527 84.0385ZM151.068 87.1169L150.895 86.1321C150.431 86.214 150.087 86.6089 150.069 87.0799L151.068 87.1169ZM150.741 95.948L149.742 95.9109C149.73 96.2128 149.856 96.5035 150.084 96.702C150.312 96.9004 150.617 96.9852 150.915 96.9328L150.741 95.948ZM170.532 92.4583L171.531 92.4905C171.541 92.1894 171.414 91.9 171.187 91.7027C170.959 91.5054 170.655 91.4212 170.358 91.4735L170.532 92.4583ZM170.271 100.563L170.445 101.548C170.911 101.465 171.255 101.068 171.27 100.595L170.271 100.563ZM140.333 105.842L139.333 105.808C139.323 106.109 139.45 106.399 139.677 106.597C139.905 106.794 140.21 106.879 140.506 106.826L140.333 105.842ZM141.921 64.7252L171.859 59.4462L171.512 57.4766L141.574 62.7555L141.921 64.7252ZM170.686 58.4293L170.426 66.5337L172.424 66.598L172.685 58.4936L170.686 58.4293ZM171.251 65.581L151.461 69.0707L151.808 71.0403L171.599 67.5506L171.251 65.581ZM150.635 70.0184L150.308 78.8494L152.306 78.9236L152.634 70.0925L150.635 70.0184ZM151.48 79.8713L168.939 76.7929L168.592 74.8233L151.133 77.9017L151.48 79.8713ZM167.766 75.7791L167.527 84.0095L169.527 84.0675L169.765 75.837L167.766 75.7791ZM168.353 83.0537L150.895 86.1321L151.242 88.1017L168.701 85.0233L168.353 83.0537ZM150.069 87.0799L149.742 95.9109L151.74 95.985L152.068 87.154L150.069 87.0799ZM150.915 96.9328L170.705 93.4431L170.358 91.4735L150.567 94.9632L150.915 96.9328ZM169.532 92.4262L169.271 100.531L171.27 100.595L171.531 92.4905L169.532 92.4262ZM170.097 99.5779L140.159 104.857L140.506 106.826L170.445 101.548L170.097 99.5779ZM141.332 105.875L142.747 63.7739L140.748 63.7068L139.333 105.808L141.332 105.875ZM180.415 91.1055L180.242 90.1207C179.776 90.2027 179.432 90.5991 179.416 91.0712L180.415 91.1055ZM188.546 89.6718L189.545 89.7061C189.556 89.4047 189.429 89.1147 189.202 88.9169C188.974 88.7191 188.669 88.6347 188.372 88.687L188.546 89.6718ZM188.282 97.387L188.455 98.3718C188.92 98.2897 189.265 97.8933 189.281 97.4212L188.282 97.387ZM180.151 98.8206L179.152 98.7864C179.141 99.0878 179.268 99.3777 179.495 99.5755C179.723 99.7733 180.028 99.8578 180.325 99.8054L180.151 98.8206ZM180.589 92.0903L188.72 90.6567L188.372 88.687L180.242 90.1207L180.589 92.0903ZM187.547 89.6376L187.282 97.3527L189.281 97.4212L189.545 89.7061L187.547 89.6376ZM188.108 96.4021L179.977 97.8358L180.325 99.8054L188.455 98.3718L188.108 96.4021ZM181.15 98.8548L181.415 91.1397L179.416 91.0712L179.152 98.7864L181.15 98.8548ZM201.193 53.2585L201.019 52.2737C200.554 52.3558 200.209 52.7525 200.193 53.2249L201.193 53.2585ZM230.245 51.0604L229.706 51.9032L229.715 51.9085L230.245 51.0604ZM234.974 61.6642L233.974 61.6348L233.974 61.6384L234.974 61.6642ZM232.648 69.4829L231.794 68.9626L231.793 68.9638L232.648 69.4829ZM226.842 75.2508L226.324 74.3951C226.042 74.5657 225.862 74.8644 225.843 75.1935C225.824 75.5227 225.969 75.84 226.23 76.0417L226.842 75.2508ZM229.232 78.8585L228.301 79.2219C228.304 79.2307 228.308 79.2396 228.311 79.2483L229.232 78.8585ZM233.687 89.3807L233.861 90.3655C234.161 90.3126 234.42 90.1259 234.566 89.8583C234.711 89.5907 234.727 89.2714 234.608 88.9909L233.687 89.3807ZM223.098 91.2478L222.178 91.6393C222.36 92.0674 222.814 92.3134 223.272 92.2326L223.098 91.2478ZM218.881 81.3336L217.955 81.7125L217.961 81.725L218.881 81.3336ZM217.465 79.5686L216.976 80.4408C217.004 80.4567 217.033 80.4713 217.063 80.4844L217.465 79.5686ZM210.369 80.235L210.195 79.2502C209.729 79.3323 209.385 79.7292 209.369 80.2018L210.369 80.235ZM209.926 93.5705L210.099 94.5553C210.565 94.4732 210.909 94.0763 210.925 93.6037L209.926 93.5705ZM199.778 95.3598L198.779 95.3262C198.769 95.6275 198.895 95.9173 199.123 96.1149C199.35 96.3126 199.655 96.3969 199.952 96.3446L199.778 95.3598ZM222.842 68.4175L222.102 67.7451L222.102 67.7451L222.842 68.4175ZM224.637 63.4868L225.637 63.5219C225.637 63.5131 225.637 63.5043 225.637 63.4954L224.637 63.4868ZM222.895 58.4L222.403 59.2706C222.422 59.281 222.441 59.2908 222.46 59.3001L222.895 58.4ZM211.08 59.5736L210.906 58.5888C210.441 58.6707 210.097 59.0663 210.08 59.5378L211.08 59.5736ZM210.629 72.1306L209.63 72.0948C209.619 72.3964 209.745 72.6869 209.973 72.885C210.201 73.0832 210.506 73.1678 210.803 73.1154L210.629 72.1306ZM201.367 54.2433L221.661 50.6648L221.314 48.6952L201.019 52.2737L201.367 54.2433ZM221.661 50.6648C224.92 50.0901 227.572 50.5398 229.706 51.9031L230.783 50.2176C228.133 48.5253 224.946 48.0547 221.314 48.6952L221.661 50.6648ZM229.715 51.9085C231.873 53.2563 233.238 55.3668 233.767 58.3677L235.737 58.0204C235.125 54.5504 233.485 51.9052 230.774 50.2122L229.715 51.9085ZM233.767 58.3677C233.938 59.3402 234.01 60.4277 233.974 61.6348L235.973 61.6937C236.012 60.3748 235.936 59.1488 235.737 58.0204L233.767 58.3677ZM233.974 61.6384C233.907 64.2456 233.183 66.6818 231.794 68.9626L233.502 70.0031C235.07 67.43 235.897 64.6539 235.973 61.6901L233.974 61.6384ZM231.793 68.9638C230.435 71.2007 228.616 73.009 226.324 74.3951L227.359 76.1065C229.921 74.557 231.974 72.52 233.503 70.0019L231.793 68.9638ZM226.23 76.0417C226.654 76.3698 227.007 76.7412 227.295 77.156L228.938 76.0153C228.529 75.4265 228.033 74.908 227.453 74.4599L226.23 76.0417ZM227.295 77.156C227.577 77.562 227.915 78.2343 228.301 79.2219L230.164 78.495C229.759 77.4558 229.353 76.6129 228.938 76.0153L227.295 77.156ZM228.311 79.2483L232.766 89.7706L234.608 88.9909L230.153 78.4686L228.311 79.2483ZM233.513 88.3959L222.925 90.263L223.272 92.2326L233.861 90.3655L233.513 88.3959ZM224.019 90.8563L219.801 80.9421L217.961 81.725L222.178 91.6393L224.019 90.8563ZM219.806 80.9547C219.386 79.9293 218.78 79.0536 217.867 78.6529L217.063 80.4844C217.277 80.5782 217.614 80.8791 217.955 81.7125L219.806 80.9547ZM217.954 78.6965C217.114 78.2253 216.013 78.2244 214.859 78.4278L215.206 80.3974C216.238 80.2155 216.758 80.3186 216.976 80.4408L217.954 78.6965ZM214.859 78.4278L210.195 79.2502L210.542 81.2198L215.206 80.3974L214.859 78.4278ZM209.369 80.2018L208.926 93.5373L210.925 93.6037L211.368 80.2682L209.369 80.2018ZM209.752 92.5857L199.605 94.375L199.952 96.3446L210.099 94.5553L209.752 92.5857ZM200.778 95.3934L202.192 53.2921L200.193 53.2249L198.779 95.3262L200.778 95.3934ZM218.303 71.7929C220.488 71.4076 222.278 70.5262 223.582 69.0899L222.102 67.7451C221.157 68.785 219.805 69.4973 217.956 69.8233L218.303 71.7929ZM223.582 69.0899C224.9 67.6396 225.558 65.752 225.637 63.5219L223.638 63.4517C223.572 65.3196 223.034 66.7191 222.102 67.7451L223.582 69.0899ZM225.637 63.4954C225.647 62.3092 225.602 61.3548 225.482 60.6735L223.512 61.0208C223.599 61.516 223.647 62.3214 223.637 63.4783L225.637 63.4954ZM225.482 60.6735C225.23 59.2452 224.558 58.0941 223.331 57.5L222.46 59.3001C222.938 59.5317 223.334 60.012 223.512 61.0208L225.482 60.6735ZM223.387 57.5294C222.252 56.8875 220.661 56.8687 218.848 57.1885L219.195 59.1581C220.911 58.8556 221.903 58.9879 222.403 59.2706L223.387 57.5294ZM218.848 57.1885L210.906 58.5888L211.253 60.5584L219.195 59.1581L218.848 57.1885ZM210.08 59.5378L209.63 72.0948L211.629 72.1664L212.079 59.6095L210.08 59.5378ZM210.803 73.1154L218.303 71.7929L217.956 69.8233L210.456 71.1458L210.803 73.1154ZM244.539 79.7988L244.365 78.814C243.9 78.896 243.555 79.2925 243.539 79.7646L244.539 79.7988ZM252.669 78.3652L253.669 78.3994C253.679 78.098 253.553 77.808 253.325 77.6103C253.097 77.4125 252.793 77.328 252.496 77.3804L252.669 78.3652ZM252.405 86.0803L252.579 87.0651C253.044 86.9831 253.388 86.5867 253.404 86.1145L252.405 86.0803ZM244.274 87.5139L243.275 87.4797C243.265 87.7811 243.391 88.0711 243.619 88.2688C243.846 88.4666 244.151 88.5511 244.448 88.4987L244.274 87.5139ZM244.712 80.7836L252.843 79.35L252.496 77.3804L244.365 78.814L244.712 80.7836ZM251.67 78.3309L251.406 86.046L253.404 86.1145L253.669 78.3994L251.67 78.3309ZM252.231 85.0955L244.101 86.5291L244.448 88.4987L252.579 87.0651L252.231 85.0955ZM245.274 87.5482L245.538 79.8331L243.539 79.7646L243.275 87.4797L245.274 87.5482ZM265.316 41.9518L265.143 40.967C264.677 41.0491 264.333 41.4459 264.317 41.9183L265.316 41.9518ZM295.254 36.6729L296.254 36.7051C296.264 36.404 296.137 36.1146 295.909 35.9173C295.682 35.72 295.377 35.6358 295.081 35.6881L295.254 36.6729ZM294.994 44.7773L295.167 45.7621C295.633 45.68 295.978 45.2824 295.993 44.8095L294.994 44.7773ZM275.203 48.267L275.029 47.2822C274.565 47.364 274.221 47.7589 274.204 48.2299L275.203 48.267ZM274.876 57.098L273.876 57.0609C273.865 57.3628 273.991 57.6536 274.219 57.852C274.446 58.0504 274.752 58.1353 275.049 58.0828L274.876 57.098ZM292.334 54.0196L293.334 54.0485C293.343 53.748 293.216 53.4595 292.988 53.2629C292.761 53.0663 292.457 52.9825 292.161 53.0347L292.334 54.0196ZM292.096 62.25L292.269 63.2348C292.737 63.1524 293.082 62.7531 293.095 62.279L292.096 62.25ZM274.637 65.3284L274.463 64.3436C273.999 64.4255 273.655 64.8203 273.638 65.2914L274.637 65.3284ZM274.31 74.1595L273.31 74.1224C273.299 74.4243 273.425 74.715 273.653 74.9135C273.881 75.1119 274.186 75.1967 274.483 75.1443L274.31 74.1595ZM294.1 70.6698L295.1 70.702C295.11 70.4009 294.983 70.1115 294.755 69.9142C294.528 69.7169 294.223 69.6327 293.927 69.685L294.1 70.6698ZM293.84 78.7742L294.013 79.759C294.479 79.6768 294.824 79.2793 294.839 78.8064L293.84 78.7742ZM263.902 84.0531L262.902 84.0195C262.892 84.3208 263.018 84.6106 263.246 84.8083C263.474 85.0059 263.778 85.0903 264.075 85.0379L263.902 84.0531ZM265.49 42.9367L295.428 37.6577L295.081 35.6881L265.143 40.967L265.49 42.9367ZM294.255 36.6408L293.994 44.7452L295.993 44.8095L296.254 36.7051L294.255 36.6408ZM294.82 43.7925L275.029 47.2822L275.377 49.2518L295.167 45.7621L294.82 43.7925ZM274.204 48.2299L273.876 57.0609L275.875 57.135L276.202 48.304L274.204 48.2299ZM275.049 58.0828L292.508 55.0044L292.161 53.0347L274.702 56.1132L275.049 58.0828ZM291.335 53.9906L291.096 62.221L293.095 62.279L293.334 54.0485L291.335 53.9906ZM291.922 61.2652L274.463 64.3436L274.811 66.3132L292.269 63.2348L291.922 61.2652ZM273.638 65.2914L273.31 74.1224L275.309 74.1965L275.636 65.3655L273.638 65.2914ZM274.483 75.1443L294.274 71.6546L293.927 69.685L274.136 73.1747L274.483 75.1443ZM293.101 70.6377L292.84 78.7421L294.839 78.8064L295.1 70.702L293.101 70.6377ZM293.666 77.7894L263.728 83.0683L264.075 85.0379L294.013 79.759L293.666 77.7894ZM264.901 84.0867L266.316 41.9854L264.317 41.9183L262.902 84.0195L264.901 84.0867ZM303.984 69.317L303.81 68.3322C303.345 68.4142 303.001 68.8106 302.985 69.2827L303.984 69.317ZM312.115 67.8833L313.114 67.9176C313.124 67.6162 312.998 67.3262 312.77 67.1284C312.543 66.9306 312.238 66.8462 311.941 66.8985L312.115 67.8833ZM311.85 75.5984L312.024 76.5833C312.489 76.5012 312.834 76.1048 312.85 75.6327L311.85 75.5984ZM303.72 77.0321L302.72 76.9978C302.71 77.2993 302.836 77.5892 303.064 77.787C303.292 77.9848 303.596 78.0693 303.893 78.0169L303.72 77.0321ZM304.158 70.3018L312.288 68.8681L311.941 66.8985L303.81 68.3322L304.158 70.3018ZM311.115 67.8491L310.851 75.5642L312.85 75.6327L313.114 67.9176L311.115 67.8491ZM311.677 74.6136L303.546 76.0473L303.893 78.0169L312.024 76.5833L311.677 74.6136ZM304.719 77.0663L304.984 69.3512L302.985 69.2827L302.72 76.9978L304.719 77.0663Z" fill="#EF41F2"/>
</g>
<g filter="url(#filter2_d)">
<path d="M23.6162 92.6285L24.3658 92.654C24.3734 92.4279 24.2787 92.2105 24.108 92.0622C23.9372 91.914 23.7087 91.8506 23.486 91.8899L23.6162 92.6285ZM11.704 94.729L10.9543 94.7049C10.9471 94.9306 11.042 95.1477 11.2127 95.2957C11.3834 95.4436 11.6117 95.5068 11.8342 95.4676L11.704 94.729ZM11.9646 86.6246L11.8344 85.886C11.4849 85.9476 11.2264 86.2458 11.215 86.6005L11.9646 86.6246ZM45.9365 80.6344L46.6861 80.6585C46.6934 80.4327 46.5985 80.2157 46.4278 80.0677C46.2571 79.9197 46.0288 79.8566 45.8063 79.8958L45.9365 80.6344ZM45.6759 88.7388L45.8061 89.4774C46.1556 89.4158 46.4141 89.1176 46.4255 88.7629L45.6759 88.7388ZM33.7637 90.8392L33.6334 90.1006C33.2844 90.1622 33.0261 90.4596 33.0141 90.8138L33.7637 90.8392ZM32.6096 124.836L32.7399 125.575C33.0889 125.513 33.3472 125.216 33.3592 124.862L32.6096 124.836ZM22.4622 126.625L21.7126 126.6C21.7049 126.826 21.7996 127.043 21.9704 127.192C22.1411 127.34 22.3697 127.403 22.5924 127.364L22.4622 126.625ZM23.486 91.8899L11.5737 93.9904L11.8342 95.4676L23.7464 93.3671L23.486 91.8899ZM12.4536 94.7531L12.7142 86.6487L11.215 86.6005L10.9543 94.7049L12.4536 94.7531ZM12.0948 87.3632L46.0668 81.373L45.8063 79.8958L11.8344 85.886L12.0948 87.3632ZM45.1869 80.6103L44.9263 88.7147L46.4255 88.7629L46.6861 80.6585L45.1869 80.6103ZM45.5456 88.0002L33.6334 90.1006L33.8939 91.5778L45.8061 89.4774L45.5456 88.0002ZM33.0141 90.8138L31.86 124.811L33.3592 124.862L34.5132 90.8647L33.0141 90.8138ZM32.4794 124.098L22.3319 125.887L22.5924 127.364L32.7399 125.575L32.4794 124.098ZM23.2117 126.651L24.3658 92.654L22.8666 92.6031L21.7126 126.6L23.2117 126.651ZM53.7075 113.447L53.5773 112.709C53.2284 112.77 52.9701 113.068 52.958 113.422L53.7075 113.447ZM61.8381 112.014L62.5877 112.04C62.5954 111.813 62.5007 111.596 62.33 111.448C62.1592 111.299 61.9306 111.236 61.7079 111.275L61.8381 112.014ZM61.5738 119.729L61.704 120.468C62.053 120.406 62.3112 120.109 62.3234 119.755L61.5738 119.729ZM53.4432 121.163L52.6937 121.137C52.6859 121.363 52.7806 121.58 52.9514 121.729C53.1221 121.877 53.3507 121.94 53.5735 121.901L53.4432 121.163ZM53.8378 114.186L61.9683 112.752L61.7079 111.275L53.5773 112.709L53.8378 114.186ZM61.0885 111.988L60.8242 119.703L62.3234 119.755L62.5877 112.04L61.0885 111.988ZM61.4436 118.99L53.313 120.424L53.5735 121.901L61.704 120.468L61.4436 118.99ZM54.1928 121.188L54.4571 113.473L52.958 113.422L52.6937 121.137L54.1928 121.188ZM74.4851 75.6005L74.3549 74.8619C74.0058 74.9235 73.7475 75.221 73.7356 75.5753L74.4851 75.6005ZM84.6326 73.8112L85.3821 73.8369C85.3899 73.6108 85.2952 73.3933 85.1244 73.245C84.9537 73.0967 84.7251 73.0334 84.5024 73.0726L84.6326 73.8112ZM84.063 90.4834L83.3135 90.4578C83.3057 90.6839 83.4004 90.9013 83.5712 91.0497C83.742 91.198 83.9705 91.2613 84.1933 91.222L84.063 90.4834ZM99.946 87.6828L100.076 88.4214C100.425 88.3599 100.683 88.0626 100.696 87.7084L99.946 87.6828ZM100.516 71.0106L100.385 70.272C100.036 70.3336 99.7781 70.6309 99.766 70.985L100.516 71.0106ZM110.663 69.2214L111.413 69.2466C111.42 69.0206 111.325 68.8032 111.155 68.655C110.984 68.5068 110.755 68.4435 110.533 68.4828L110.663 69.2214ZM109.248 111.323L109.379 112.061C109.728 112 109.986 111.702 109.998 111.348L109.248 111.323ZM99.1009 113.112L98.3513 113.086C98.3436 113.312 98.4383 113.53 98.6091 113.678C98.7798 113.826 99.0084 113.89 99.2311 113.851L99.1009 113.112ZM99.6704 96.4397L100.42 96.4653C100.428 96.2393 100.333 96.0218 100.162 95.8735C99.9915 95.7252 99.7629 95.6618 99.5402 95.7011L99.6704 96.4397ZM83.7875 99.2403L83.6572 98.5017C83.3083 98.5633 83.05 98.8606 83.0379 99.2147L83.7875 99.2403ZM83.2179 115.913L83.3481 116.651C83.6971 116.59 83.9554 116.292 83.9675 115.938L83.2179 115.913ZM73.0704 117.702L72.3209 117.677C72.3133 117.903 72.408 118.12 72.5788 118.268C72.7495 118.416 72.978 118.48 73.2007 118.44L73.0704 117.702ZM74.6154 76.3391L84.7628 74.5499L84.5024 73.0726L74.3549 74.8619L74.6154 76.3391ZM83.883 73.7856L83.3135 90.4578L84.8126 90.509L85.3821 73.8369L83.883 73.7856ZM84.1933 91.222L100.076 88.4214L99.8158 86.9442L83.9328 89.7448L84.1933 91.222ZM100.696 87.7084L101.265 71.0363L99.766 70.985L99.1964 87.6572L100.696 87.7084ZM100.646 71.7493L110.793 69.96L110.533 68.4828L100.385 70.272L100.646 71.7493ZM109.913 69.1962L108.499 111.297L109.998 111.348L111.413 69.2466L109.913 69.1962ZM109.118 110.584L98.9706 112.373L99.2311 113.851L109.379 112.061L109.118 110.584ZM99.8504 113.138L100.42 96.4653L98.9209 96.4141L98.3513 113.086L99.8504 113.138ZM99.5402 95.7011L83.6572 98.5017L83.9177 99.9789L99.8007 97.1783L99.5402 95.7011ZM83.0379 99.2147L82.4683 115.887L83.9675 115.938L84.537 99.2659L83.0379 99.2147ZM83.0877 115.174L72.9402 116.963L73.2007 118.44L83.3481 116.651L83.0877 115.174ZM73.82 117.727L75.2347 75.6257L73.7356 75.5753L72.3209 117.677L73.82 117.727ZM120.97 101.587L120.84 100.849C120.491 100.91 120.232 101.208 120.22 101.562L120.97 101.587ZM129.1 100.154L129.85 100.179C129.858 99.9533 129.763 99.7358 129.592 99.5875C129.422 99.4392 129.193 99.3758 128.97 99.4151L129.1 100.154ZM128.836 107.869L128.966 108.607C129.315 108.546 129.574 108.249 129.586 107.894L128.836 107.869ZM120.706 109.302L119.956 109.277C119.948 109.503 120.043 109.72 120.214 109.869C120.384 110.017 120.613 110.08 120.836 110.041L120.706 109.302ZM121.1 102.326L129.231 100.892L128.97 99.4151L120.84 100.849L121.1 102.326ZM128.351 100.128L128.087 107.843L129.586 107.894L129.85 100.179L128.351 100.128ZM128.706 107.13L120.575 108.564L120.836 110.041L128.966 108.607L128.706 107.13ZM121.455 109.328L121.719 101.613L120.22 101.562L119.956 109.277L121.455 109.328ZM141.747 63.7403L141.617 63.0017C141.268 63.0633 141.01 63.3609 140.998 63.7152L141.747 63.7403ZM171.686 58.4614L172.435 58.4856C172.443 58.2598 172.348 58.0427 172.177 57.8947C172.006 57.7468 171.778 57.6836 171.555 57.7228L171.686 58.4614ZM171.425 66.5658L171.555 67.3044C171.905 67.2428 172.163 66.9446 172.175 66.5899L171.425 66.5658ZM151.634 70.0555L151.504 69.3169C151.156 69.3782 150.898 69.6744 150.885 70.0277L151.634 70.0555ZM151.307 78.8865L150.557 78.8587C150.549 79.0851 150.643 79.3032 150.814 79.452C150.985 79.6008 151.214 79.6644 151.437 79.6251L151.307 78.8865ZM168.765 75.8081L169.515 75.8298C169.522 75.6044 169.426 75.388 169.256 75.2406C169.085 75.0931 168.857 75.0303 168.635 75.0695L168.765 75.8081ZM168.527 84.0385L168.657 84.7771C169.008 84.7153 169.266 84.4159 169.277 84.0602L168.527 84.0385ZM151.068 87.1169L150.938 86.3783C150.59 86.4397 150.332 86.7359 150.319 87.0891L151.068 87.1169ZM150.741 95.948L149.991 95.9202C149.983 96.1466 150.077 96.3646 150.248 96.5135C150.419 96.6623 150.648 96.7259 150.871 96.6866L150.741 95.948ZM170.532 92.4583L171.281 92.4824C171.288 92.2566 171.194 92.0396 171.023 91.8916C170.852 91.7436 170.624 91.6805 170.401 91.7197L170.532 92.4583ZM170.271 100.563L170.401 101.301C170.751 101.24 171.009 100.942 171.021 100.587L170.271 100.563ZM140.333 105.842L139.583 105.816C139.576 106.042 139.67 106.26 139.841 106.408C140.012 106.556 140.24 106.619 140.463 106.58L140.333 105.842ZM141.878 64.479L171.816 59.2L171.555 57.7228L141.617 63.0017L141.878 64.479ZM170.936 58.4373L170.675 66.5417L172.175 66.5899L172.435 58.4856L170.936 58.4373ZM171.295 65.8272L151.504 69.3169L151.765 70.7941L171.555 67.3044L171.295 65.8272ZM150.885 70.0277L150.557 78.8587L152.056 78.9143L152.384 70.0833L150.885 70.0277ZM151.437 79.6251L168.896 76.5467L168.635 75.0695L151.177 78.1479L151.437 79.6251ZM168.016 75.7863L167.777 84.0168L169.277 84.0602L169.515 75.8298L168.016 75.7863ZM168.397 83.2999L150.938 86.3783L151.199 87.8555L168.657 84.7771L168.397 83.2999ZM150.319 87.0891L149.991 95.9202L151.49 95.9758L151.818 87.1447L150.319 87.0891ZM150.871 96.6866L170.662 93.1969L170.401 91.7197L150.611 95.2094L150.871 96.6866ZM169.782 92.4342L169.521 100.539L171.021 100.587L171.281 92.4824L169.782 92.4342ZM170.141 99.8241L140.203 105.103L140.463 106.58L170.401 101.301L170.141 99.8241ZM141.082 105.867L142.497 63.7655L140.998 63.7152L139.583 105.816L141.082 105.867ZM180.415 91.1055L180.285 90.3669C179.936 90.4284 179.678 90.7257 179.666 91.0798L180.415 91.1055ZM188.546 89.6718L189.295 89.6975C189.303 89.4715 189.209 89.254 189.038 89.1057C188.867 88.9573 188.638 88.894 188.416 88.9332L188.546 89.6718ZM188.282 97.387L188.412 98.1256C188.761 98.064 189.019 97.7667 189.031 97.4126L188.282 97.387ZM180.151 98.8206L179.401 98.7949C179.394 99.021 179.488 99.2384 179.659 99.3868C179.83 99.5351 180.059 99.5985 180.281 99.5592L180.151 98.8206ZM180.546 91.8441L188.676 90.4105L188.416 88.9332L180.285 90.3669L180.546 91.8441ZM187.796 89.6462L187.532 97.3613L189.031 97.4126L189.295 89.6975L187.796 89.6462ZM188.151 96.6483L180.021 98.082L180.281 99.5592L188.412 98.1256L188.151 96.6483ZM180.901 98.8463L181.165 91.1312L179.666 91.0798L179.401 98.7949L180.901 98.8463ZM201.193 53.2585L201.063 52.5199C200.714 52.5815 200.455 52.879 200.443 53.2333L201.193 53.2585ZM230.245 51.0604L229.841 51.6925L229.847 51.6965L230.245 51.0604ZM234.974 61.6642L234.224 61.6421L234.224 61.6448L234.974 61.6642ZM232.648 69.4829L232.008 69.0927L232.007 69.0936L232.648 69.4829ZM226.842 75.2508L226.453 74.609C226.242 74.737 226.107 74.961 226.093 75.2079C226.079 75.4547 226.187 75.6927 226.383 75.844L226.842 75.2508ZM229.232 78.8585L228.534 79.131C228.536 79.1377 228.539 79.1443 228.542 79.1509L229.232 78.8585ZM233.687 89.3807L233.817 90.1193C234.042 90.0797 234.237 89.9396 234.346 89.7389C234.455 89.5382 234.467 89.2987 234.378 89.0883L233.687 89.3807ZM223.098 91.2478L222.408 91.5414C222.545 91.8625 222.885 92.047 223.229 91.9864L223.098 91.2478ZM218.881 81.3336L218.187 81.6178L218.191 81.6272L218.881 81.3336ZM217.465 79.5686L217.098 80.2228C217.119 80.2347 217.141 80.2456 217.163 80.2554L217.465 79.5686ZM210.369 80.235L210.239 79.4964C209.889 79.558 209.631 79.8557 209.619 80.2101L210.369 80.235ZM209.926 93.5705L210.056 94.3091C210.405 94.2475 210.664 93.9498 210.675 93.5954L209.926 93.5705ZM199.778 95.3598L199.029 95.3346C199.021 95.5606 199.116 95.7779 199.287 95.9261C199.457 96.0744 199.686 96.1377 199.908 96.0984L199.778 95.3598ZM222.842 68.4175L222.287 67.9132L222.287 67.9132L222.842 68.4175ZM224.637 63.4868L225.387 63.5132C225.387 63.5065 225.387 63.4999 225.387 63.4933L224.637 63.4868ZM222.895 58.4L222.526 59.053C222.54 59.0608 222.554 59.0681 222.569 59.075L222.895 58.4ZM211.08 59.5736L210.95 58.835C210.601 58.8965 210.343 59.1931 210.33 59.5467L211.08 59.5736ZM210.629 72.1306L209.88 72.1037C209.872 72.33 209.966 72.5478 210.137 72.6964C210.308 72.845 210.537 72.9085 210.76 72.8692L210.629 72.1306ZM201.323 53.9971L221.618 50.4186L221.358 48.9414L201.063 52.5199L201.323 53.9971ZM221.618 50.4186C224.924 49.8357 227.642 50.288 229.841 51.6924L230.648 50.4283C228.063 48.7771 224.943 48.3092 221.358 48.9414L221.618 50.4186ZM229.847 51.6965C232.074 53.0874 233.474 55.2648 234.013 58.3243L235.49 58.0638C234.889 54.6525 233.283 52.0741 230.642 50.4242L229.847 51.6965ZM234.013 58.3243C234.188 59.3163 234.26 60.4211 234.224 61.6421L235.723 61.6863C235.762 60.3814 235.686 59.1728 235.49 58.0638L234.013 58.3243ZM234.224 61.6448C234.155 64.2966 233.419 66.7754 232.008 69.0927L233.289 69.873C234.834 67.3365 235.648 64.6028 235.724 61.6836L234.224 61.6448ZM232.007 69.0936C230.627 71.3656 228.779 73.2025 226.453 74.609L227.23 75.8926C229.758 74.3635 231.781 72.3551 233.289 69.8721L232.007 69.0936ZM226.383 75.844C226.826 76.1871 227.197 76.5768 227.501 77.0134L228.733 76.1579C228.339 75.5909 227.86 75.0907 227.3 74.6576L226.383 75.844ZM227.501 77.0134C227.799 77.4433 228.146 78.137 228.534 79.131L229.931 78.5859C229.528 77.5531 229.131 76.7315 228.733 76.1579L227.501 77.0134ZM228.542 79.1509L232.996 89.6731L234.378 89.0883L229.923 78.566L228.542 79.1509ZM233.557 88.6421L222.968 90.5092L223.229 91.9864L233.817 90.1193L233.557 88.6421ZM223.789 90.9542L219.571 81.04L218.191 81.6272L222.408 91.5414L223.789 90.9542ZM219.575 81.0494C219.165 80.048 218.592 79.2441 217.766 78.8818L217.163 80.2554C217.465 80.3876 217.836 80.7604 218.187 81.6177L219.575 81.0494ZM217.832 78.9145C217.07 78.487 216.041 78.4733 214.903 78.674L215.163 80.1512C216.21 79.9666 216.802 80.0569 217.098 80.2228L217.832 78.9145ZM214.903 78.674L210.239 79.4964L210.499 80.9736L215.163 80.1512L214.903 78.674ZM209.619 80.2101L209.176 93.5456L210.675 93.5954L211.118 80.2599L209.619 80.2101ZM209.795 92.8319L199.648 94.6212L199.908 96.0984L210.056 94.3091L209.795 92.8319ZM200.528 95.385L201.943 53.2837L200.443 53.2333L199.029 95.3346L200.528 95.385ZM218.26 71.5467C220.403 71.1689 222.138 70.3085 223.397 68.9218L222.287 67.9132C221.297 69.0027 219.89 69.7361 217.999 70.0695L218.26 71.5467ZM223.397 68.9218C224.667 67.5246 225.31 65.6979 225.387 63.5132L223.888 63.4605C223.821 65.3737 223.267 66.8341 222.287 67.9132L223.397 68.9218ZM225.387 63.4933C225.397 62.3107 225.351 61.375 225.235 60.7169L223.758 60.9774C223.85 61.4958 223.897 62.3199 223.887 63.4804L225.387 63.4933ZM225.235 60.7169C224.993 59.3411 224.356 58.2738 223.222 57.725L222.569 59.075C223.141 59.352 223.571 59.9162 223.758 60.9774L225.235 60.7169ZM223.264 57.7471C222.208 57.1501 220.693 57.1171 218.891 57.4347L219.151 58.9119C220.879 58.6072 221.947 58.7254 222.526 59.053L223.264 57.7471ZM218.891 57.4347L210.95 58.835L211.21 60.3122L219.151 58.9119L218.891 57.4347ZM210.33 59.5467L209.88 72.1037L211.379 72.1575L211.829 59.6005L210.33 59.5467ZM210.76 72.8692L218.26 71.5467L217.999 70.0695L210.499 71.392L210.76 72.8692ZM244.539 79.7988L244.408 79.0602C244.059 79.1217 243.801 79.419 243.789 79.7731L244.539 79.7988ZM252.669 78.3652L253.419 78.3909C253.427 78.1648 253.332 77.9473 253.161 77.799C252.99 77.6506 252.762 77.5873 252.539 77.6266L252.669 78.3652ZM252.405 86.0803L252.535 86.8189C252.884 86.7574 253.142 86.4601 253.154 86.106L252.405 86.0803ZM244.274 87.5139L243.525 87.4882C243.517 87.7143 243.612 87.9318 243.782 88.0801C243.953 88.2285 244.182 88.2918 244.405 88.2525L244.274 87.5139ZM244.669 80.5374L252.799 79.1038L252.539 77.6266L244.408 79.0602L244.669 80.5374ZM251.92 78.3395L251.655 86.0546L253.154 86.106L253.419 78.3909L251.92 78.3395ZM252.275 85.3417L244.144 86.7753L244.405 88.2525L252.535 86.8189L252.275 85.3417ZM245.024 87.5396L245.288 79.8245L243.789 79.7731L243.525 87.4882L245.024 87.5396ZM265.316 41.9518L265.186 41.2132C264.837 41.2748 264.579 41.5724 264.567 41.9267L265.316 41.9518ZM295.254 36.6729L296.004 36.697C296.011 36.4712 295.916 36.2542 295.746 36.1062C295.575 35.9583 295.347 35.8951 295.124 35.9343L295.254 36.6729ZM294.994 44.7773L295.124 45.5159C295.473 45.4543 295.732 45.1561 295.743 44.8014L294.994 44.7773ZM275.203 48.267L275.073 47.5284C274.725 47.5897 274.467 47.8859 274.454 48.2392L275.203 48.267ZM274.876 57.098L274.126 57.0702C274.118 57.2966 274.212 57.5147 274.383 57.6635C274.554 57.8123 274.783 57.8759 275.006 57.8366L274.876 57.098ZM292.334 54.0196L293.084 54.0413C293.09 53.8159 292.995 53.5995 292.825 53.4521C292.654 53.3046 292.426 53.2418 292.204 53.2809L292.334 54.0196ZM292.096 62.25L292.226 62.9886C292.576 62.9268 292.835 62.6274 292.846 62.2717L292.096 62.25ZM274.637 65.3284L274.507 64.5898C274.159 64.6512 273.901 64.9474 273.888 65.3006L274.637 65.3284ZM274.31 74.1595L273.56 74.1317C273.552 74.3581 273.646 74.5761 273.817 74.725C273.988 74.8738 274.217 74.9374 274.44 74.8981L274.31 74.1595ZM294.1 70.6698L294.85 70.6939C294.857 70.4681 294.762 70.2511 294.592 70.1031C294.421 69.9551 294.193 69.892 293.97 69.9312L294.1 70.6698ZM293.84 78.7742L293.97 79.5128C294.319 79.4512 294.578 79.153 294.589 78.7983L293.84 78.7742ZM263.902 84.0531L263.152 84.0279C263.144 84.2539 263.239 84.4712 263.41 84.6195C263.581 84.7677 263.809 84.831 264.032 84.7917L263.902 84.0531ZM265.446 42.6904L295.385 37.4115L295.124 35.9343L265.186 41.2132L265.446 42.6904ZM294.505 36.6488L294.244 44.7532L295.743 44.8014L296.004 36.697L294.505 36.6488ZM294.864 44.0387L275.073 47.5284L275.333 49.0056L295.124 45.5159L294.864 44.0387ZM274.454 48.2392L274.126 57.0702L275.625 57.1258L275.953 48.2948L274.454 48.2392ZM275.006 57.8366L292.464 54.7582L292.204 53.2809L274.745 56.3594L275.006 57.8366ZM291.585 53.9978L291.346 62.2283L292.846 62.2717L293.084 54.0413L291.585 53.9978ZM291.966 61.5114L274.507 64.5898L274.767 66.067L292.226 62.9886L291.966 61.5114ZM273.888 65.3006L273.56 74.1317L275.059 74.1873L275.387 65.3562L273.888 65.3006ZM274.44 74.8981L294.231 71.4084L293.97 69.9312L274.179 73.4209L274.44 74.8981ZM293.351 70.6457L293.09 78.7501L294.589 78.7983L294.85 70.6939L293.351 70.6457ZM293.709 78.0356L263.771 83.3145L264.032 84.7917L293.97 79.5128L293.709 78.0356ZM264.651 84.0783L266.066 41.977L264.567 41.9267L263.152 84.0279L264.651 84.0783ZM303.984 69.317L303.854 68.5784C303.505 68.6399 303.247 68.9372 303.235 69.2913L303.984 69.317ZM312.115 67.8833L312.864 67.909C312.872 67.683 312.777 67.4655 312.607 67.3171C312.436 67.1688 312.207 67.1055 311.984 67.1447L312.115 67.8833ZM311.85 75.5984L311.981 76.3371C312.33 76.2755 312.588 75.9782 312.6 75.6241L311.85 75.5984ZM303.72 77.0321L302.97 77.0064C302.962 77.2325 303.057 77.4499 303.228 77.5983C303.399 77.7466 303.627 77.81 303.85 77.7707L303.72 77.0321ZM304.114 70.0556L312.245 68.6219L311.984 67.1447L303.854 68.5784L304.114 70.0556ZM311.365 67.8577L311.101 75.5728L312.6 75.6241L312.864 67.909L311.365 67.8577ZM311.72 74.8598L303.59 76.2935L303.85 77.7707L311.981 76.3371L311.72 74.8598ZM304.469 77.0578L304.734 69.3427L303.235 69.2913L302.97 77.0064L304.469 77.0578Z" fill="#F2F2F2" fill-opacity="0.75"/>
</g>
<path d="M25.6495 150.054L22.3979 150.627L22.4196 160.001L21.5983 160.146L21.5766 150.772L18.3183 151.346L18.3215 150.617L25.6528 149.324L25.6495 150.054ZM29.1872 152.567C29.7235 151.515 30.469 150.914 31.4237 150.764C32.127 150.658 32.6795 150.813 33.0812 151.228C33.483 151.643 33.7095 152.272 33.7609 153.114L33.8022 157.994L33.0078 158.134L32.9641 153.241C32.9459 152.98 32.9069 152.733 32.847 152.498C32.6299 151.713 32.1221 151.379 31.3238 151.496C30.8509 151.571 30.436 151.789 30.0791 152.153C29.7213 152.512 29.439 153.011 29.2322 153.649L29.2513 158.796L28.4569 158.936L28.4311 148.279L29.2255 148.139L29.1872 152.567ZM40.1527 157.013C39.5677 157.107 39.0343 157.034 38.5525 156.795C38.07 156.552 37.6799 156.176 37.3821 155.669C37.0881 155.156 36.9145 154.578 36.8613 153.935L36.8411 153.703C36.7852 153.018 36.8722 152.344 37.1019 151.678C37.3309 151.009 37.6754 150.469 38.1353 150.059C38.5945 149.645 39.1192 149.393 39.7095 149.303C40.2541 149.216 40.738 149.283 41.1612 149.505C41.5888 149.726 41.933 150.077 42.1938 150.558C42.4546 151.04 42.6081 151.596 42.6545 152.226L42.6873 152.727L37.645 153.617L37.6533 153.782C37.6722 154.283 37.7908 154.745 38.0091 155.17C38.2265 155.589 38.5157 155.904 38.8766 156.113C39.2411 156.318 39.6463 156.385 40.0922 156.316C40.5255 156.253 40.8991 156.102 41.213 155.861C41.5269 155.621 41.8032 155.324 42.0419 154.972L42.5808 155.273C42.3276 155.753 41.9937 156.142 41.5792 156.442C41.1684 156.737 40.6929 156.927 40.1527 157.013ZM39.7902 149.997C39.2028 150.077 38.7163 150.376 38.3308 150.893C37.9453 151.409 37.7055 152.083 37.6114 152.914L41.8403 152.176L41.8427 152.071C41.8112 151.42 41.6024 150.892 41.2165 150.488C40.8298 150.079 40.3544 149.916 39.7902 149.997ZM57.5422 153.808L56.7142 153.954L56.7069 149.11L51.2943 150.064L51.3016 154.908L50.4802 155.053L50.4551 144.951L51.2764 144.806L51.2853 149.344L56.6979 148.39L56.689 143.852L57.5238 143.704L57.5422 153.808ZM60.751 149.417C60.7075 148.698 60.8094 148.016 61.0566 147.371C61.303 146.722 61.6596 146.198 62.1264 145.801C62.5977 145.404 63.1397 145.158 63.7525 145.063C64.3554 144.966 64.8964 145.042 65.3752 145.291C65.8578 145.534 66.2446 145.917 66.5357 146.44C66.8305 146.957 67.0059 147.558 67.0618 148.242L67.0708 148.372C67.1388 149.545 66.893 150.539 66.3335 151.355C65.7784 152.17 65.0232 152.651 64.0678 152.796C63.2486 152.927 62.5426 152.741 61.9497 152.239C61.3568 151.738 60.9798 151.004 60.8186 150.037L60.7712 149.65L60.751 149.417ZM61.5723 149.509C61.6081 150.053 61.7333 150.54 61.9479 150.969C62.1662 151.394 62.4482 151.707 62.794 151.91C63.1398 152.113 63.5383 152.181 63.9895 152.116C64.4758 152.039 64.8961 151.838 65.2504 151.512C65.6092 151.185 65.8776 150.765 66.0556 150.252C66.2337 149.739 66.3109 149.194 66.2875 148.615L66.2686 148.389C66.1966 147.508 65.9373 146.825 65.4907 146.34C65.0478 145.848 64.4953 145.654 63.8332 145.757C63.1111 145.861 62.5386 146.249 62.1156 146.921C61.6962 147.587 61.5125 148.408 61.5644 149.385L61.5723 149.509ZM71.363 141.938L71.3687 143.859L72.8295 143.602L72.8314 144.282L71.3705 144.539L71.4197 149.542L71.4799 149.962C71.5661 150.451 71.8348 150.663 72.286 150.597C72.426 150.577 72.6409 150.523 72.9307 150.435L73.0134 151.101C72.7621 151.224 72.4987 151.305 72.2234 151.344C71.7505 151.418 71.3783 151.315 71.1067 151.034C70.8343 150.749 70.6734 150.296 70.6242 149.676L70.5694 144.68L69.2634 144.911L69.2682 144.23L70.5608 144.002L70.5619 142.079L71.363 141.938ZM77.1041 140.925L77.1098 142.847L78.5706 142.589L78.5725 143.269L77.1117 143.527L77.1609 148.53L77.221 148.95C77.3073 149.439 77.576 149.651 78.0272 149.585C78.1671 149.565 78.382 149.511 78.6719 149.423L78.7545 150.088C78.5032 150.211 78.2398 150.293 77.9645 150.332C77.4917 150.406 77.1194 150.303 76.8478 150.022C76.5754 149.737 76.4146 149.284 76.3653 148.663L76.3105 143.668L75.0045 143.898L75.0094 143.217L76.3019 142.989L76.303 141.066L77.1041 140.925ZM84.5495 149.185C83.9645 149.278 83.4311 149.206 82.9493 148.967C82.4667 148.723 82.0766 148.348 81.7789 147.841C81.4849 147.328 81.3112 146.75 81.258 146.107L81.2378 145.874C81.182 145.19 81.2689 144.515 81.4987 143.85C81.7277 143.18 82.0721 142.641 82.5321 142.231C82.9912 141.817 83.5159 141.565 84.1062 141.474C84.6509 141.388 85.1348 141.455 85.5579 141.677C85.9856 141.897 86.3298 142.249 86.5905 142.73C86.8513 143.212 87.0049 143.768 87.0513 144.398L87.0841 144.899L82.0417 145.788L82.05 145.953C82.069 146.454 82.1876 146.917 82.4058 147.341C82.6233 147.761 82.9125 148.076 83.2733 148.285C83.6379 148.489 84.0431 148.557 84.489 148.487C84.9222 148.425 85.2958 148.273 85.6097 148.033C85.9236 147.792 86.2 147.496 86.4387 147.144L86.9776 147.445C86.7243 147.924 86.3905 148.314 85.9759 148.614C85.5651 148.908 85.0896 149.099 84.5495 149.185ZM84.1869 142.168C83.5995 142.249 83.1131 142.547 82.7276 143.064C82.3421 143.581 82.1023 144.255 82.0082 145.086L86.2371 144.347L86.2395 144.243C86.2079 143.591 85.9991 143.063 85.6132 142.66C85.2265 142.251 84.7511 142.087 84.1869 142.168ZM94.2609 145.376C94.2235 144.744 93.7673 144.362 92.8925 144.229L91.674 144.09C90.547 143.918 89.9387 143.408 89.8491 142.558C89.7736 141.947 89.9653 141.406 90.4239 140.937C90.8862 140.462 91.4817 140.165 92.2103 140.046C92.9255 139.929 93.5401 140.029 94.0541 140.345C94.5672 140.657 94.8659 141.144 94.95 141.805L94.1556 141.945C94.1058 141.505 93.9064 141.174 93.5574 140.953C93.2129 140.732 92.793 140.66 92.2978 140.738C91.7861 140.828 91.3766 141.025 91.0693 141.33C90.7612 141.629 90.6195 141.98 90.6443 142.383C90.679 142.974 91.1052 143.318 91.9228 143.414L92.807 143.508L93.2854 143.583C94.3669 143.786 94.9545 144.323 95.0481 145.195C95.1151 145.785 94.9462 146.31 94.5414 146.77C94.1403 147.225 93.5735 147.54 92.8409 147.716L92.5661 147.771C92.0753 147.848 91.6166 147.832 91.19 147.722C90.7626 147.608 90.4145 147.405 90.1458 147.115C89.8771 146.825 89.7186 146.464 89.6704 146.033L90.4727 145.898C90.5534 146.356 90.772 146.69 91.1283 146.9C91.4847 147.11 91.9352 147.172 92.4798 147.085C93.0184 146.99 93.4548 146.788 93.7891 146.479C94.1225 146.166 94.2798 145.798 94.2609 145.376ZM99.4169 136.991L99.4226 138.913L100.883 138.655L100.885 139.335L99.4245 139.593L99.4737 144.596L99.5338 145.015C99.6201 145.505 99.8888 145.716 100.34 145.651C100.48 145.631 100.695 145.576 100.985 145.488L101.067 146.154C100.816 146.277 100.553 146.358 100.277 146.397C99.8045 146.472 99.4322 146.368 99.1606 146.088C98.8882 145.802 98.7274 145.35 98.6781 144.729L98.6234 139.734L97.3173 139.964L97.3222 139.283L98.6147 139.055L98.6158 137.132L99.4169 136.991ZM114.094 138.991L109.651 139.775L109.656 143.897L114.772 142.995L114.774 143.716L108.837 144.763L108.812 134.661L114.716 133.62L114.712 134.349L109.636 135.244L109.642 139.054L114.092 138.27L114.094 138.991ZM118.604 143.041L117.796 143.184L117.77 132.526L118.578 132.384L118.604 143.041ZM125.069 142.04C124.484 142.134 123.95 142.061 123.468 141.822C122.986 141.579 122.596 141.203 122.298 140.696C122.004 140.183 121.83 139.605 121.777 138.962L121.757 138.73C121.701 138.045 121.788 137.371 122.018 136.705C122.247 136.036 122.591 135.496 123.051 135.086C123.51 134.672 124.035 134.42 124.625 134.33C125.17 134.243 125.654 134.31 126.077 134.532C126.505 134.753 126.849 135.104 127.11 135.586C127.37 136.067 127.524 136.623 127.57 137.254L127.603 137.754L122.561 138.644L122.569 138.809C122.588 139.31 122.707 139.772 122.925 140.197C123.142 140.616 123.432 140.931 123.792 141.14C124.157 141.345 124.562 141.412 125.008 141.343C125.441 141.28 125.815 141.129 126.129 140.888C126.443 140.648 126.719 140.351 126.958 139.999L127.497 140.3C127.243 140.78 126.91 141.169 126.495 141.469C126.084 141.764 125.609 141.954 125.069 142.04ZM124.706 135.024C124.119 135.104 123.632 135.403 123.247 135.92C122.861 136.436 122.621 137.11 122.527 137.941L126.756 137.203L126.759 137.098C126.727 136.447 126.518 135.919 126.132 135.515C125.746 135.106 125.27 134.943 124.706 135.024ZM133.236 139.906C133.768 139.83 134.209 139.602 134.559 139.221C134.912 138.835 135.109 138.365 135.15 137.812L135.911 137.678C135.904 138.424 135.652 139.07 135.156 139.616C134.663 140.156 134.05 140.482 133.315 140.593C132.725 140.683 132.203 140.608 131.749 140.369C131.295 140.13 130.93 139.752 130.654 139.237C130.382 138.72 130.217 138.113 130.159 137.415L130.135 137.121C130.105 136.64 130.139 136.162 130.236 135.687C130.337 135.211 130.506 134.776 130.742 134.383C130.977 133.985 131.281 133.651 131.655 133.382C132.032 133.107 132.48 132.931 132.999 132.853C133.747 132.74 134.384 132.887 134.909 133.294C135.434 133.701 135.749 134.28 135.854 135.029L135.092 135.157C135.002 134.594 134.776 134.167 134.414 133.874C134.053 133.582 133.61 133.472 133.086 133.546C132.526 133.626 132.063 133.874 131.697 134.291C131.331 134.707 131.095 135.246 130.99 135.908C130.884 136.57 130.9 137.249 131.037 137.947C131.178 138.667 131.438 139.195 131.816 139.531C132.194 139.863 132.667 139.988 133.236 139.906ZM140.057 129.825L140.063 131.747L141.524 131.489L141.526 132.169L140.065 132.427L140.114 137.43L140.174 137.849C140.26 138.339 140.529 138.55 140.98 138.485C141.12 138.465 141.335 138.411 141.625 138.322L141.708 138.988C141.456 139.111 141.193 139.192 140.918 139.231C140.445 139.306 140.072 139.202 139.801 138.922C139.528 138.637 139.368 138.184 139.318 137.563L139.264 132.568L137.958 132.798L137.962 132.117L139.255 131.889L139.256 129.966L140.057 129.825ZM147.876 131.07C147.695 131.065 147.514 131.076 147.334 131.103C146.822 131.193 146.381 131.433 146.01 131.823C145.638 132.207 145.423 132.653 145.364 133.158L145.385 138.319L144.591 138.459L144.572 130.952L145.36 130.813L145.321 132.013C145.51 131.536 145.771 131.152 146.104 130.862C146.442 130.571 146.835 130.391 147.286 130.32C147.443 130.293 147.632 130.292 147.854 130.317L147.876 131.07ZM149.94 133.691C149.897 132.972 149.999 132.29 150.246 131.645C150.492 130.995 150.849 130.472 151.316 130.075C151.787 129.677 152.329 129.431 152.942 129.337C153.545 129.24 154.086 129.316 154.565 129.564C155.047 129.808 155.434 130.191 155.725 130.713C156.02 131.231 156.195 131.831 156.251 132.516L156.26 132.646C156.328 133.819 156.082 134.813 155.523 135.629C154.968 136.444 154.213 136.924 153.257 137.07C152.438 137.2 151.732 137.015 151.139 136.513C150.546 136.011 150.169 135.277 150.008 134.311L149.961 133.923L149.94 133.691ZM150.762 133.782C150.797 134.326 150.923 134.813 151.137 135.243C151.355 135.667 151.638 135.981 151.983 136.184C152.329 136.386 152.728 136.455 153.179 136.389C153.665 136.313 154.085 136.111 154.44 135.785C154.799 135.458 155.067 135.038 155.245 134.526C155.423 134.013 155.5 133.467 155.477 132.888L155.458 132.662C155.386 131.782 155.127 131.099 154.68 130.613C154.237 130.122 153.685 129.928 153.022 130.031C152.3 130.135 151.728 130.523 151.305 131.194C150.886 131.861 150.702 132.682 150.754 133.659L150.762 133.782ZM160.093 128.215L160.071 129.503C160.315 128.997 160.627 128.588 161.007 128.276C161.39 127.958 161.825 127.761 162.312 127.685C163.015 127.579 163.567 127.734 163.969 128.149C164.371 128.564 164.597 129.193 164.649 130.035L164.69 134.915L163.896 135.055L163.852 130.162C163.834 129.901 163.795 129.654 163.735 129.419C163.518 128.634 163.01 128.3 162.212 128.417C161.739 128.491 161.324 128.71 160.967 129.074C160.609 129.433 160.327 129.932 160.12 130.57L160.139 135.717L159.345 135.857L159.326 128.35L160.093 128.215ZM169.038 134.148L168.23 134.291L168.218 126.782L169.019 126.641L169.038 134.148ZM168.068 124.636C168.039 124.34 168.2 124.122 168.55 123.982C168.731 123.982 168.864 124.017 168.95 124.085C169.04 124.148 169.112 124.267 169.166 124.442C169.151 124.621 169.108 124.758 169.037 124.854C168.965 124.945 168.847 125.024 168.683 125.09C168.31 125.1 168.105 124.949 168.068 124.636ZM175.317 132.486C175.849 132.41 176.29 132.182 176.64 131.801C176.993 131.415 177.19 130.945 177.231 130.392L177.992 130.258C177.985 131.004 177.733 131.65 177.237 132.196C176.744 132.736 176.131 133.062 175.396 133.173C174.806 133.263 174.284 133.188 173.83 132.949C173.376 132.71 173.01 132.332 172.734 131.817C172.463 131.3 172.298 130.693 172.24 129.995L172.216 129.701C172.186 129.22 172.22 128.742 172.317 128.267C172.418 127.791 172.587 127.356 172.823 126.963C173.058 126.565 173.362 126.231 173.736 125.962C174.113 125.687 174.561 125.511 175.08 125.433C175.828 125.32 176.465 125.467 176.99 125.874C177.515 126.281 177.83 126.86 177.934 127.609L177.173 127.737C177.083 127.174 176.857 126.747 176.495 126.454C176.134 126.162 175.691 126.052 175.167 126.126C174.607 126.206 174.144 126.454 173.778 126.871C173.412 127.287 173.176 127.826 173.071 128.488C172.965 129.15 172.981 129.829 173.118 130.527C173.259 131.247 173.518 131.775 173.897 132.111C174.275 132.443 174.748 132.568 175.317 132.486ZM189.386 126.354L186.619 126.842L186.625 131.047L185.796 131.193L185.771 121.091L188.674 120.586C189.652 120.414 190.452 120.536 191.071 120.955C191.69 121.368 192.034 122.016 192.101 122.897C192.149 123.564 192.002 124.173 191.66 124.724C191.322 125.274 190.819 125.719 190.153 126.059L192.552 129.905L192.562 130L191.687 130.155L189.386 126.354ZM186.615 126.113L189.04 125.693C189.731 125.571 190.286 125.265 190.704 124.775C191.125 124.279 191.317 123.699 191.279 123.035C191.244 122.393 191.016 121.913 190.594 121.594C190.172 121.275 189.614 121.168 188.92 121.272L186.603 121.673L186.615 126.113ZM200.108 128.67C200.055 128.503 200.018 128.334 199.997 128.162L199.969 127.646C199.696 128.069 199.36 128.422 198.962 128.705C198.567 128.988 198.118 129.169 197.614 129.248C196.997 129.348 196.463 129.243 196.01 128.934C195.561 128.62 195.307 128.172 195.246 127.59C195.197 127.104 195.288 126.66 195.518 126.258C195.751 125.852 196.123 125.504 196.632 125.215C197.14 124.922 197.731 124.716 198.404 124.597L199.893 124.341L199.867 123.485C199.833 122.978 199.655 122.597 199.332 122.344C199.01 122.091 198.585 122.002 198.056 122.076C197.525 122.161 197.086 122.374 196.74 122.718C196.397 123.056 196.215 123.456 196.195 123.918L195.407 124.057C195.384 123.403 195.621 122.827 196.116 122.328C196.61 121.824 197.244 121.509 198.017 121.382C198.77 121.268 199.387 121.393 199.867 121.757C200.353 122.12 200.618 122.656 200.665 123.365L200.705 127.135L200.754 127.73C200.783 127.974 200.844 128.211 200.935 128.441L200.936 128.524L200.108 128.67ZM197.624 128.518C198.12 128.449 198.571 128.249 198.976 127.918C199.384 127.583 199.695 127.155 199.909 126.636L199.901 124.979L198.614 125.199C197.797 125.343 197.156 125.606 196.692 125.989C196.226 126.367 196.014 126.83 196.055 127.378C196.084 127.78 196.245 128.087 196.537 128.3C196.833 128.511 197.196 128.584 197.624 128.518ZM206.315 126.402L208.341 119.707L209.189 119.558L206.697 127.508L206.044 127.623L203.245 120.606L204.039 120.466L206.315 126.402ZM214.778 126.222C214.193 126.316 213.659 126.243 213.177 126.004C212.695 125.761 212.305 125.385 212.007 124.878C211.713 124.365 211.539 123.787 211.486 123.144L211.466 122.912C211.41 122.227 211.497 121.553 211.727 120.887C211.956 120.218 212.3 119.678 212.76 119.268C213.219 118.854 213.744 118.602 214.334 118.512C214.879 118.425 215.363 118.492 215.786 118.714C216.214 118.935 216.558 119.286 216.819 119.767C217.079 120.249 217.233 120.805 217.279 121.435L217.312 121.936L212.27 122.825L212.278 122.991C212.297 123.492 212.416 123.954 212.634 124.379C212.851 124.798 213.141 125.113 213.501 125.322C213.866 125.526 214.271 125.594 214.717 125.524C215.15 125.462 215.524 125.311 215.838 125.07C216.152 124.83 216.428 124.533 216.667 124.181L217.206 124.482C216.952 124.961 216.619 125.351 216.204 125.651C215.793 125.946 215.318 126.136 214.778 126.222ZM214.415 119.206C213.828 119.286 213.341 119.585 212.956 120.101C212.57 120.618 212.33 121.292 212.236 122.123L216.465 121.385L216.468 121.28C216.436 120.629 216.227 120.101 215.841 119.697C215.455 119.288 214.979 119.125 214.415 119.206ZM230.362 118.49L225.919 119.273L225.924 123.396L231.041 122.494L231.043 123.215L225.105 124.262L225.08 114.16L230.984 113.119L230.981 113.848L225.905 114.743L225.91 118.553L230.36 117.768L230.362 118.49ZM236.16 117.836L238.004 114.477L239 114.301L236.649 118.444L239.201 121.777L238.312 121.933L236.249 119.132L234.3 122.641L233.317 122.814L235.766 118.516L233.318 115.303L234.207 115.147L236.16 117.836ZM245.007 120.898C244.588 120.963 244.178 120.945 243.776 120.845C243.378 120.739 243.033 120.527 242.741 120.208L242.723 124.043L241.928 124.183L241.9 113.79L242.641 113.659L242.634 114.723C243.125 113.808 243.849 113.28 244.805 113.139C245.49 113.037 246.067 113.196 246.535 113.618C247.003 114.04 247.322 114.699 247.494 115.594C247.548 115.876 247.583 116.152 247.598 116.423L247.605 116.616C247.631 117.421 247.54 118.136 247.33 118.76C247.121 119.385 246.819 119.878 246.425 120.239C246.03 120.596 245.557 120.815 245.007 120.898ZM246.797 116.564L246.725 115.917C246.612 115.197 246.382 114.656 246.037 114.296C245.691 113.936 245.247 113.795 244.705 113.872C244.232 113.946 243.824 114.138 243.481 114.448C243.142 114.753 242.88 115.158 242.696 115.663L242.715 119.276C242.931 119.663 243.213 119.938 243.561 120.098C243.913 120.258 244.308 120.307 244.746 120.243C245.401 120.151 245.908 119.812 246.267 119.226C246.63 118.634 246.81 117.869 246.806 116.93L246.797 116.564ZM253.703 119.358C253.117 119.452 252.584 119.38 252.102 119.141C251.62 118.897 251.23 118.522 250.932 118.014C250.638 117.502 250.464 116.924 250.411 116.281L250.391 116.048C250.335 115.364 250.422 114.689 250.652 114.024C250.881 113.354 251.225 112.814 251.685 112.405C252.144 111.991 252.669 111.738 253.259 111.648C253.804 111.561 254.288 111.629 254.711 111.85C255.139 112.071 255.483 112.422 255.744 112.904C256.004 113.385 256.158 113.941 256.204 114.572L256.237 115.073L251.195 115.962L251.203 116.127C251.222 116.628 251.341 117.091 251.559 117.515C251.776 117.935 252.066 118.249 252.426 118.459C252.791 118.663 253.196 118.73 253.642 118.661C254.075 118.598 254.449 118.447 254.763 118.207C255.077 117.966 255.353 117.67 255.592 117.318L256.131 117.618C255.877 118.098 255.543 118.488 255.129 118.788C254.718 119.082 254.243 119.272 253.703 119.358ZM253.34 112.342C252.753 112.422 252.266 112.721 251.881 113.238C251.495 113.755 251.255 114.429 251.161 115.26L255.39 114.521L255.393 114.417C255.361 113.765 255.152 113.237 254.766 112.833C254.38 112.425 253.904 112.261 253.34 112.342ZM262.429 110.871C262.248 110.866 262.067 110.877 261.887 110.904C261.375 110.995 260.934 111.234 260.563 111.624C260.191 112.009 259.976 112.454 259.917 112.959L259.938 118.12L259.144 118.26L259.125 110.753L259.913 110.614L259.875 111.815C260.063 111.337 260.324 110.953 260.657 110.663C260.995 110.372 261.389 110.192 261.839 110.122C261.996 110.094 262.186 110.093 262.408 110.118L262.429 110.871ZM265.982 117.054L265.174 117.197L265.162 109.688L265.964 109.547L265.982 117.054ZM265.013 107.542C264.984 107.246 265.145 107.028 265.495 106.888C265.675 106.888 265.809 106.923 265.895 106.991C265.984 107.054 266.056 107.173 266.11 107.348C266.096 107.527 266.053 107.664 265.982 107.76C265.91 107.851 265.792 107.93 265.628 107.996C265.255 108.006 265.05 107.855 265.013 107.542ZM272.447 116.053C271.862 116.147 271.329 116.074 270.847 115.835C270.365 115.592 269.974 115.217 269.677 114.709C269.383 114.196 269.209 113.618 269.156 112.975L269.136 112.743C269.08 112.059 269.167 111.384 269.397 110.719C269.626 110.049 269.97 109.509 270.43 109.1C270.889 108.685 271.414 108.433 272.004 108.343C272.549 108.256 273.033 108.324 273.456 108.545C273.883 108.766 274.228 109.117 274.488 109.599C274.749 110.08 274.903 110.636 274.949 111.267L274.982 111.768L269.94 112.657L269.948 112.822C269.967 113.323 270.085 113.786 270.304 114.21C270.521 114.63 270.81 114.944 271.171 115.154C271.536 115.358 271.941 115.425 272.387 115.356C272.82 115.293 273.194 115.142 273.508 114.901C273.822 114.661 274.098 114.365 274.337 114.012L274.875 114.313C274.622 114.793 274.288 115.182 273.874 115.482C273.463 115.777 272.988 115.967 272.447 116.053ZM272.085 109.037C271.497 109.117 271.011 109.416 270.625 109.933C270.24 110.45 270 111.124 269.906 111.955L274.135 111.216L274.137 111.111C274.106 110.46 273.897 109.932 273.511 109.528C273.124 109.12 272.649 108.956 272.085 109.037ZM278.637 107.312L278.615 108.6C278.859 108.095 279.171 107.686 279.551 107.373C279.934 107.056 280.369 106.859 280.855 106.782C281.559 106.677 282.111 106.832 282.513 107.247C282.915 107.662 283.141 108.29 283.193 109.133L283.234 114.012L282.44 114.152L282.396 109.259C282.378 108.999 282.339 108.751 282.279 108.517C282.062 107.731 281.554 107.397 280.756 107.515C280.283 107.589 279.868 107.808 279.511 108.172C279.153 108.531 278.871 109.03 278.664 109.668L278.683 114.815L277.889 114.955L277.87 107.448L278.637 107.312ZM289.412 112.368C289.945 112.292 290.386 112.064 290.735 111.683C291.088 111.297 291.285 110.827 291.327 110.274L292.087 110.14C292.08 110.886 291.828 111.532 291.332 112.078C290.84 112.618 290.226 112.944 289.491 113.055C288.901 113.145 288.379 113.07 287.925 112.831C287.471 112.592 287.106 112.214 286.83 111.698C286.558 111.182 286.393 110.575 286.335 109.877L286.311 109.583C286.282 109.102 286.315 108.624 286.412 108.149C286.513 107.673 286.682 107.238 286.918 106.845C287.153 106.447 287.458 106.113 287.831 105.844C288.209 105.569 288.656 105.393 289.175 105.315C289.923 105.202 290.56 105.349 291.085 105.756C291.61 106.163 291.925 106.742 292.03 107.491L291.268 107.619C291.178 107.056 290.952 106.629 290.591 106.336C290.229 106.043 289.786 105.934 289.262 106.008C288.703 106.088 288.24 106.336 287.874 106.753C287.507 107.169 287.271 107.708 287.166 108.37C287.061 109.032 287.076 109.711 287.213 110.409C287.354 111.129 287.614 111.657 287.992 111.993C288.37 112.325 288.843 112.449 289.412 112.368ZM297.938 111.558C297.353 111.652 296.819 111.58 296.338 111.341C295.855 111.097 295.465 110.722 295.167 110.214C294.873 109.702 294.699 109.124 294.646 108.481L294.626 108.248C294.57 107.564 294.657 106.889 294.887 106.224C295.116 105.554 295.46 105.015 295.92 104.605C296.379 104.191 296.904 103.939 297.494 103.848C298.039 103.762 298.523 103.829 298.946 104.051C299.374 104.271 299.718 104.622 299.979 105.104C300.24 105.586 300.393 106.142 300.439 106.772L300.472 107.273L295.43 108.162L295.438 108.327C295.457 108.828 295.576 109.291 295.794 109.715C296.012 110.135 296.301 110.45 296.662 110.659C297.026 110.863 297.431 110.93 297.877 110.861C298.31 110.799 298.684 110.647 298.998 110.407C299.312 110.166 299.588 109.87 299.827 109.518L300.366 109.818C300.113 110.298 299.779 110.688 299.364 110.988C298.953 111.282 298.478 111.472 297.938 111.558ZM297.575 104.542C296.988 104.623 296.501 104.921 296.116 105.438C295.73 105.955 295.49 106.629 295.396 107.46L299.625 106.721L299.628 106.617C299.596 105.965 299.387 105.437 299.001 105.033C298.615 104.625 298.139 104.461 297.575 104.542Z" fill="#FFF2CB"/>
<defs>
<filter id="filter0_d" x="2.70386" y="31.6729" width="318.411" height="107.952" filterUnits="userSpaceOnUse" color-interpolation-filters="sRGB">
<feFlood flood-opacity="0" result="BackgroundImageFix"/>
<feColorMatrix in="SourceAlpha" type="matrix" values="0 0 0 0 0 0 0 0 0 0 0 0 0 0 0 0 0 0 127 0"/>
<feOffset dy="4"/>
<feGaussianBlur stdDeviation="4"/>
<feColorMatrix type="matrix" values="0 0 0 0 0.94902 0 0 0 0 0.788235 0 0 0 0 0.298039 0 0 0 1 0"/>
<feBlend mode="normal" in2="BackgroundImageFix" result="effect1_dropShadow"/>
<feBlend mode="normal" in="SourceGraphic" in2="effect1_dropShadow" result="shape"/>
</filter>
<filter id="filter1_d" x="2.70386" y="31.6729" width="318.411" height="107.952" filterUnits="userSpaceOnUse" color-interpolation-filters="sRGB">
<feFlood flood-opacity="0" result="BackgroundImageFix"/>
<feColorMatrix in="SourceAlpha" type="matrix" values="0 0 0 0 0 0 0 0 0 0 0 0 0 0 0 0 0 0 127 0"/>
<feOffset dy="4"/>
<feGaussianBlur stdDeviation="4"/>
<feColorMatrix type="matrix" values="0 0 0 0 0.933333 0 0 0 0 0.439444 0 0 0 0 0.900407 0 0 0 1 0"/>
<feBlend mode="normal" in2="BackgroundImageFix" result="effect1_dropShadow"/>
<feBlend mode="normal" in="SourceGraphic" in2="effect1_dropShadow" result="shape"/>
</filter>
<filter id="filter2_d" x="2.95386" y="31.9229" width="317.911" height="107.452" filterUnits="userSpaceOnUse" color-interpolation-filters="sRGB">
<feFlood flood-opacity="0" result="BackgroundImageFix"/>
<feColorMatrix in="SourceAlpha" type="matrix" values="0 0 0 0 0 0 0 0 0 0 0 0 0 0 0 0 0 0 127 0"/>
<feOffset dy="4"/>
<feGaussianBlur stdDeviation="4"/>
<feColorMatrix type="matrix" values="0 0 0 0 0.933333 0 0 0 0 0.439444 0 0 0 0 0.900407 0 0 0 1 0"/>
<feBlend mode="normal" in2="BackgroundImageFix" result="effect1_dropShadow"/>
<feBlend mode="normal" in="SourceGraphic" in2="effect1_dropShadow" result="shape"/>
</filter>
</defs>
</svg>
